<?xml version="1.0" encoding="UTF-8"?>
<!DOCTYPE svg PUBLIC "-//W3C//DTD SVG 1.1//EN" "http://www.w3.org/Graphics/SVG/1.1/DTD/svg11.dtd">
<!-- Creator: CorelDRAW -->
<svg xmlns="http://www.w3.org/2000/svg" xml:space="preserve" width="33.8667mm" height="30.9662mm" version="1.1" style="shape-rendering:geometricPrecision; text-rendering:geometricPrecision; image-rendering:optimizeQuality; fill-rule:evenodd; clip-rule:evenodd"
viewBox="0 0 87.96 80.43"
 xmlns:xlink="http://www.w3.org/1999/xlink"
 xmlns:xodm="http://www.corel.com/coreldraw/odm/2003">
 <defs>
  <style type="text/css">
   <![CDATA[
    .fil0 {fill:#1DB954}
   ]]>
  </style>
 </defs>
 <g id="Camada_x0020_1">
  <metadata id="CorelCorpID_0Corel-Layer"/>
  <path class="fil0" d="M18.43 37.43l-2.24 -17.73c-0.07,-0.47 -0.12,-0.95 -0.13,-1.42 -0.04,-1.59 0.49,-3.06 1.18,-4.47 1.92,-3.91 5.58,-7.08 9.65,-9.42 4.43,-2.55 9.55,-4.49 17.3,-4.39 5.11,0.3 9.83,1.46 13.98,3.7 1.77,0.96 3.64,2.21 5.28,3.64 2.1,1.85 4.25,4.56 4.96,7.32 0.25,0.96 0.35,1.97 0.29,3.05l-2.13 18.87 2.91 4.46 0 0.01 0 0.01 0 0.01c0.09,0.14 0.24,0.34 0.31,0.47 0.03,0.05 0.04,0.11 0.05,0.17l0 0 0 0.01 0 0c0,0.03 0,0.05 0,0.08l0 0 0 0c-0.01,0.08 -0.03,0.17 -0.08,0.25 -0.1,0.17 -0.24,0.36 -0.35,0.53l-0.01 0.01 -0.01 0.01 -0.01 0.01 -7.53 11.64c-0.3,0.46 -0.49,0.47 -1.02,0.58l-4.44 0.89 -0.67 4.12 -0.04 0.22c-0.04,0.13 -0.14,0.23 -0.27,0.31l-0.17 0.11 -6.41 4.18c-0.14,0.05 -0.28,0.08 -0.43,0.09l-8.09 0.01c-0.17,0.01 -0.33,-0.03 -0.49,-0.1l-7.19 -4.1c-0.23,-0.16 -0.4,-0.35 -0.49,-0.57l-0.96 -4.18 -0.32 -0.35 -5.42 -1.05c-0.42,-0.08 -0.72,-0.13 -1,-0.48l-8.96 -11.46c-0.1,-0.14 -0.16,-0.28 -0.17,-0.41 -0.01,-0.12 0.02,-0.24 0.09,-0.35l2.98 -4.3zm35.09 -8.63c-0.5,0.81 -1.57,1.07 -2.38,0.58 -5.47,-3.34 -12,-3.36 -18.09,-1.97 -0.93,0.21 -1.86,-0.37 -2.07,-1.3 -0.21,-0.93 0.37,-1.86 1.3,-2.07 7,-1.6 14.39,-1.44 20.66,2.39 0.81,0.5 1.07,1.57 0.57,2.38zm2.56 -5.7c-0.59,0.96 -1.87,1.27 -2.83,0.68 -5.68,-3.49 -14.17,-4.33 -20.53,-2.4 -1.09,0.33 -2.24,-0.28 -2.57,-1.37 -0.33,-1.09 0.29,-2.24 1.37,-2.57 3.95,-1.2 8.27,-1.46 12.37,-0.98 3.99,0.47 8.07,1.7 11.51,3.81 0.96,0.59 1.27,1.87 0.68,2.83zm-0.36 -5.8c-6.25,-3.71 -17.13,-4.47 -24,-2.38 -1.26,0.38 -2.59,-0.33 -2.97,-1.59 -0.38,-1.26 0.33,-2.59 1.59,-2.97 8.14,-2.47 20.41,-1.55 27.81,2.84 1.13,0.67 1.5,2.14 0.83,3.27 -0.67,1.13 -2.14,1.5 -3.27,0.83zm17.64 26.23l-7.72 10.42c-0.27,0.37 0.1,0.58 0.42,0.42 8.51,-4.25 18.36,-3.89 21.16,-3.64 0.85,0.07 0.79,-0.1 0.71,-0.73 -0.06,-0.56 -0.17,-1.06 -0.32,-1.49 -0.38,-1.02 -1.06,-1.24 -1.78,-2.01 -0.13,-0.14 -0.26,-0.29 -0.39,-0.44 -1.13,-1.42 -1.39,-3.33 -0.87,-4.94 0.48,-1.51 2.53,-3.05 1.41,-5.1 -0.72,-1.31 -2.6,-2.04 -4.36,-2.39 -1.08,-0.21 -2.3,-0.58 -2.31,0.45 -0.02,2.27 -0.6,4.03 -1.35,5.43 -1.07,1.99 -2.68,3.22 -4.59,4.03zm-14.13 19.4c-0.14,-0.11 -0.28,-0.17 -0.43,-0.14 -0.3,0.06 -0.31,0.25 -0.37,0.51 -0.06,0.24 -0.14,0.59 -0.28,1.02 -0.32,0.97 -0.63,2.24 -0.79,2.93 -0.14,0.61 -0.07,0.58 -0.59,0.97 -0.62,0.46 -1.19,0.94 -1.93,1.35 -0.14,0.1 -0.25,0.15 -0.18,0.35 0.06,0.18 0.16,0.2 0.31,0.25 1.46,0.5 2.87,1.44 4.44,2.4 2.15,1.31 4.14,3.93 5.86,5.56 0.3,0.28 0.59,0.54 0.87,0.75 0.31,0.23 0.59,0.45 0.9,0.53 0.38,0.1 0.77,0.09 1.18,0.06 1.05,-0.08 1.5,0.07 2.22,-0.83 1.05,-1.31 1.03,-2.62 2.06,-4.12 0.67,-0.97 1.33,-1.56 1.49,-1.7 0.43,-0.4 1.19,-1 2.22,-1.5 0.46,-0.23 0.96,-0.45 1.49,-0.66 0.97,-0.38 1.24,-0.13 0.98,-1.17 -0.09,-0.36 -0.23,-0.71 -0.41,-1.04 -0.59,-1.04 -1.6,-1.84 -2.79,-2.03 -0.7,-0.11 -1.49,0.03 -2.4,0.1 -2.87,0.21 -11.37,-1.81 -13.84,-3.59zm-30.84 0.16c0.15,-0.12 0.3,-0.18 0.45,-0.15 0.32,0.06 0.33,0.26 0.4,0.52 0.06,0.25 0.15,0.61 0.3,1.05 0.34,1 0.68,2.3 0.86,3.01 0.16,0.62 0.08,0.6 0.64,0.99 0.66,0.46 1.26,0.94 2.04,1.36 0.15,0.1 0.26,0.15 0.2,0.36 -0.06,0.18 -0.17,0.21 -0.32,0.26 -1.53,0.55 -3,1.55 -4.64,2.58 -2.24,1.41 -4.31,4.15 -6.09,5.89 -0.31,0.3 -0.61,0.57 -0.9,0.8 -0.32,0.25 -0.62,0.47 -0.94,0.57 -0.39,0.11 -0.8,0.11 -1.24,0.09 -1.1,-0.06 -1.57,0.1 -2.34,-0.81 -1.12,-1.33 -1.11,-2.69 -2.21,-4.23 -0.71,-0.99 -1.42,-1.58 -1.58,-1.73 -0.45,-0.4 -1.26,-1 -2.35,-1.51 -0.49,-0.23 -1.01,-0.45 -1.57,-0.65 -1.02,-0.37 -1.31,-0.11 -1.05,-1.19 0.09,-0.38 0.23,-0.74 0.42,-1.09 0.61,-1.09 1.66,-1.94 2.9,-2.16 0.73,-0.13 1.57,0 2.52,0.05 3.02,0.16 11.93,-2.12 14.5,-4.02zm-15.61 -19.25l7.63 10.13c0.27,0.36 -0.05,0.56 -0.35,0.41 -7.96,-4.13 -16.84,-3.78 -19.35,-3.54 -0.76,0.07 -0.72,-0.1 -0.69,-0.71 0.02,-0.54 0.08,-1.03 0.2,-1.44 0.28,-0.99 0.88,-1.21 1.48,-1.95 0.11,-0.13 0.22,-0.28 0.32,-0.43 0.94,-1.38 1.05,-3.23 0.48,-4.8 -0.52,-1.46 -2.47,-2.96 -1.59,-4.96 0.57,-1.28 2.22,-1.99 3.79,-2.32 0.96,-0.21 2.04,-0.57 2.12,0.44 0.16,2.21 0.8,3.92 1.56,5.27 1.09,1.93 2.62,3.13 4.4,3.92zm19.72 19.16l1 2.95c0,0 0.08,0.24 0.15,0.27 0.07,0.03 1.4,1.09 1.4,1.09 0,0 0.49,0.24 0.47,-0.09 -0.01,-0.33 -0.1,-2.7 -0.1,-2.7 0,0 -0.05,-0.29 -0.2,-0.38 -0.15,-0.09 -2.35,-1.42 -2.35,-1.42 0,0 -0.5,-0.14 -0.36,0.27zm20.37 1.44l-0.03 2.52c0,0 -0.04,0.24 0.19,0.23 0.23,-0 1.5,-1.23 1.5,-1.23 0,0 0.2,-0.05 0.29,-0.37 0.09,-0.31 0.71,-2.73 0.71,-2.73 0,0 0.05,-0.28 -0.16,-0.29 -0.21,-0.02 -2.31,1.5 -2.31,1.5 0,0 -0.2,0.07 -0.19,0.37zm-3.82 2.35l-0.03 2.51c0,0 -0,0.26 0.29,0.21 0.3,-0.04 2.27,-1.36 2.27,-1.36 0,0 0.26,-0.06 0.25,-0.41 -0.01,-0.36 0.01,-2.52 0.01,-2.52 0,0 -0.07,-0.39 -0.42,-0.2 -0.35,0.19 -2.19,1.32 -2.19,1.32 0,0 -0.18,0.09 -0.18,0.44zm-4.1 0.22l0.01 2.8c0,0 -0.05,0.27 0.27,0.27 0.32,0 2.58,-0.03 2.58,-0.03 0,0 0.37,0.05 0.36,-0.46 -0.01,-0.51 -0.02,-2.8 -0.02,-2.8 0,0 0.04,-0.33 -0.36,-0.34 -0.4,-0.01 -2.45,0.02 -2.45,0.02 0,0 -0.42,0.03 -0.39,0.53zm-4.34 0.01l0 2.74c0,0 -0.07,0.35 0.36,0.34 0.42,-0.01 2.6,-0 2.6,-0 0,0 0.39,0.06 0.39,-0.33 0.01,-0.39 -0.02,-2.81 -0.02,-2.81 0,0 0.09,-0.42 -0.25,-0.45 -0.34,-0.03 -2.79,-0.01 -2.79,-0.01 0,0 -0.35,0.01 -0.29,0.51zm-3.99 -1.51l0.04 2.52c0,0 -0.03,0.26 0.24,0.39 0.27,0.13 2.13,1.16 2.13,1.16 0,0 0.51,0.32 0.52,-0.24 0.01,-0.57 -0.08,-2.5 -0.08,-2.5 0,0 0.04,-0.3 -0.08,-0.38 -0.12,-0.08 -2.23,-1.22 -2.23,-1.22 0,0 -0.57,-0.12 -0.55,0.28zm25.87 -25.45c-0.15,2.01 -0.63,4.31 -1.2,5.55 -1.24,2.72 -3.02,2.35 -5.37,2.01 -1.51,-0.22 -3.06,-0.67 -4.41,-1.41 -0.74,-0.4 -1.44,-0.86 -1.99,-1.5 -1.33,-1.53 -2.06,-3.24 -2.05,-4.79 0.02,-1.7 0.94,-3.18 2.87,-4.24 3.4,-1.86 6.7,-3.19 9.01,-2.44 2.82,0.91 3.36,3.89 3.13,6.81zm-39.39 0c0.18,2.01 0.73,4.31 1.39,5.55 1.45,2.72 3.53,2.35 6.26,2.01 1.76,-0.22 3.57,-0.67 5.14,-1.41 0.86,-0.4 1.68,-0.86 2.33,-1.5 1.55,-1.53 2.41,-3.24 2.39,-4.79 -0.02,-1.7 -1.09,-3.21 -3.44,-4.1 -2.88,-1.09 -7.51,-2.44 -10.58,-1.84 -3.37,0.66 -3.76,3.14 -3.5,6.07zm17.09 14.69l1.46 1.25c0.21,0.18 0.43,0.21 0.65,0.05l1.48 -1.1c0.42,-0.31 0.61,-0.36 1.04,-0.05l1.68 1.22c0.19,0.14 0.43,0.21 0.63,0.04l1.38 -1.24c0.32,-0.28 0.27,-0.54 0.1,-0.87l-4.04 -7.98c-0.07,-0.13 -0.12,-0.23 -0.29,-0.24 -0.18,-0.01 -0.24,0.07 -0.3,0.21l-3.96 7.91c-0.07,0.14 -0.13,0.24 -0.11,0.41 0.03,0.2 0.14,0.29 0.28,0.41z"/>
 </g>
</svg>
