<?xml version="1.0" encoding="UTF-8"?>
<!DOCTYPE svg PUBLIC "-//W3C//DTD SVG 1.1//EN" "http://www.w3.org/Graphics/SVG/1.1/DTD/svg11.dtd">
<!-- Creator: CorelDRAW -->
<svg xmlns="http://www.w3.org/2000/svg" xml:space="preserve" width="42.3333mm" height="15.136mm" version="1.1" style="shape-rendering:geometricPrecision; text-rendering:geometricPrecision; image-rendering:optimizeQuality; fill-rule:evenodd; clip-rule:evenodd"
viewBox="0 0 2814.23 1006.21"
 xmlns:xlink="http://www.w3.org/1999/xlink"
 xmlns:xodm="http://www.corel.com/coreldraw/odm/2003">
 <defs>
  <style type="text/css">
   <![CDATA[
    .fil0 {fill:#1DB954}
    .fil1 {fill:#1DB954;fill-rule:nonzero}
   ]]>
  </style>
 </defs>
 <g id="Camada_x0020_1">
  <metadata id="CorelCorpID_0Corel-Layer"/>
  <g id="_2800280420848">
   <path class="fil0" d="M230.31 468.36l-27.99 -221.55c-0.89,-5.92 -1.48,-11.83 -1.63,-17.74 -0.53,-19.82 6.12,-38.24 14.78,-55.87 24.01,-48.85 69.74,-88.5 120.64,-117.79 55.38,-31.87 119.33,-56.09 216.25,-54.92 63.88,3.8 122.89,18.23 174.68,46.18 22.13,11.95 45.54,27.57 65.98,45.56 26.27,23.11 53.08,56.95 61.98,91.55 3.07,11.96 4.33,24.64 3.59,38.13l-26.66 235.9 36.4 55.76 0.06 0.09 0.05 0.08 0.05 0.09c1.16,1.74 3.04,4.23 3.84,5.93 0.31,0.68 0.51,1.39 0.59,2.11l0.01 0.04 0.01 0.1 0.01 0c0.03,0.33 0.04,0.65 0.01,0.98l0 0.01 0 0.01c-0.07,1.05 -0.39,2.1 -0.99,3.12 -1.26,2.17 -2.98,4.51 -4.4,6.69l-0.07 0.11 -0.07 0.11 -0.07 0.1 -94.13 145.52c-3.73,5.77 -6.11,5.86 -12.76,7.21l-55.46 11.15 -8.34 51.53 -0.45 2.79c-0.51,1.68 -1.79,2.87 -3.33,3.92l-2.1 1.37 -80.18 52.28c-1.69,0.66 -3.47,1.05 -5.34,1.14l-101.07 0.16c-2.09,0.07 -4.12,-0.38 -6.1,-1.28l-89.81 -51.19c-2.87,-2 -4.98,-4.33 -6.08,-7.09l-12.01 -52.25 -4 -4.32 -67.71 -13.08c-5.27,-1.02 -8.97,-1.64 -12.43,-6.06l-112 -143.29c-1.25,-1.78 -1.98,-3.49 -2.14,-5.13 -0.14,-1.53 0.22,-2.99 1.13,-4.39l37.25 -53.76zm438.55 -107.84c-6.2,10.16 -19.57,13.41 -29.74,7.19 -68.37,-41.79 -150.03,-41.97 -226.06,-24.6 -11.59,2.65 -23.25,-4.68 -25.9,-16.27 -2.65,-11.59 4.67,-23.25 16.27,-25.9 87.45,-19.98 179.9,-18.05 258.25,29.83 10.15,6.2 13.38,19.59 7.17,29.74zm32.04 -71.28c-7.42,12.05 -23.32,15.87 -35.39,8.46 -71.02,-43.66 -177.1,-54.06 -256.58,-29.95 -13.58,4.12 -27.99,-3.56 -32.1,-17.14 -4.11,-13.59 3.58,-27.95 17.16,-32.08 49.38,-14.99 103.42,-18.31 154.58,-12.26 49.86,5.9 100.93,21.2 143.87,47.6 12.05,7.41 15.87,23.32 8.46,35.37zm-4.47 -72.45c-78.07,-46.38 -214.09,-55.82 -299.93,-29.77 -15.73,4.78 -32.39,-4.11 -37.16,-19.86 -4.77,-15.74 4.12,-32.39 19.86,-37.17 101.76,-30.89 255.16,-19.37 347.65,35.54 14.13,8.38 18.8,26.7 10.41,40.83 -8.38,14.13 -26.7,18.81 -40.83,10.42zm220.45 327.88l-96.51 130.28c-3.4,4.59 1.22,7.22 5.21,5.23 106.4,-53.08 229.54,-48.56 264.48,-45.54 10.62,0.92 9.83,-1.28 8.92,-9.16 -0.8,-7 -2.08,-13.28 -4.06,-18.56 -4.76,-12.7 -13.25,-15.5 -22.23,-25.1 -1.62,-1.74 -3.22,-3.58 -4.81,-5.56 -14.17,-17.7 -17.31,-41.58 -10.94,-61.78 5.94,-18.82 31.58,-38.07 17.59,-63.72 -8.95,-16.4 -32.46,-25.54 -54.51,-29.89 -13.51,-2.67 -28.78,-7.29 -28.92,5.62 -0.3,28.39 -7.55,50.39 -16.88,67.82 -13.32,24.86 -33.48,40.19 -57.35,50.35zm-176.61 242.45c-1.75,-1.38 -3.54,-2.07 -5.37,-1.72 -3.78,0.74 -3.89,3.18 -4.65,6.41 -0.7,3.01 -1.72,7.36 -3.46,12.75 -3.96,12.18 -7.82,27.99 -9.85,36.59 -1.78,7.57 -0.82,7.22 -7.43,12.11 -7.75,5.73 -14.92,11.69 -24.1,16.89 -1.73,1.22 -3.12,1.83 -2.31,4.39 0.69,2.19 2.03,2.47 3.88,3.1 18.21,6.27 35.9,17.99 55.48,29.96 26.84,16.41 51.8,49.07 73.21,69.56 3.72,3.56 7.35,6.76 10.85,9.43 3.83,2.93 7.43,5.58 11.3,6.59 4.7,1.23 9.57,1.14 14.72,0.75 13.12,-1 18.7,0.83 27.7,-10.32 13.16,-16.33 12.84,-32.71 25.79,-51.55 8.32,-12.12 16.67,-19.47 18.62,-21.29 5.32,-4.97 14.88,-12.44 27.73,-18.81 5.74,-2.85 12.01,-5.66 18.58,-8.24 12.07,-4.75 15.53,-1.62 12.29,-14.61 -1.13,-4.52 -2.81,-8.87 -5.15,-13.01 -7.38,-13.04 -20,-22.94 -34.82,-25.32 -8.72,-1.4 -18.65,0.39 -30.01,1.24 -35.88,2.66 -142.18,-22.6 -173,-44.9zm-385.45 1.95c1.83,-1.47 3.69,-2.23 5.62,-1.9 3.98,0.69 4.12,3.21 4.95,6.53 0.78,3.11 1.88,7.59 3.78,13.13 4.29,12.52 8.52,28.8 10.75,37.67 1.95,7.8 0.94,7.45 7.94,12.38 8.2,5.77 15.8,11.77 25.5,16.97 1.83,1.22 3.3,1.82 2.48,4.49 -0.7,2.29 -2.11,2.6 -4.05,3.29 -19.07,6.89 -37.51,19.4 -57.95,32.22 -28.01,17.57 -53.87,51.91 -76.14,73.58 -3.87,3.77 -7.64,7.16 -11.29,10 -3.99,3.11 -7.74,5.94 -11.8,7.07 -4.93,1.38 -10.04,1.39 -15.46,1.1 -13.79,-0.76 -19.64,1.26 -29.21,-10.08 -14.01,-16.61 -13.85,-33.58 -27.66,-52.81 -8.88,-12.36 -17.74,-19.8 -19.8,-21.64 -5.64,-5.03 -15.78,-12.55 -29.33,-18.87 -6.07,-2.83 -12.68,-5.6 -19.62,-8.13 -12.74,-4.65 -16.33,-1.34 -13.06,-14.86 1.14,-4.71 2.85,-9.25 5.27,-13.57 7.61,-13.66 20.76,-24.19 36.3,-26.97 9.13,-1.64 19.6,0.01 31.54,0.63 37.72,1.98 149.1,-26.47 181.23,-50.22zm-195.1 -240.6l95.31 126.65c3.36,4.47 -0.66,7.02 -4.39,5.09 -99.46,-51.61 -210.47,-47.21 -241.87,-44.27 -9.54,0.89 -8.95,-1.24 -8.63,-8.91 0.29,-6.81 1.06,-12.91 2.52,-18.04 3.52,-12.35 11.02,-15.07 18.53,-24.4 1.36,-1.69 2.7,-3.48 4.01,-5.4 11.71,-17.2 13.07,-40.41 6.04,-60.06 -6.53,-18.29 -30.9,-37.01 -19.84,-61.94 7.07,-15.94 27.75,-24.82 47.41,-29.05 12.05,-2.59 25.56,-7.09 26.48,5.46 2.03,27.6 9.95,48.99 19.46,65.93 13.58,24.16 32.75,39.08 54.96,48.95zm246.53 239.43l12.44 36.86c0,0 0.97,3 1.82,3.43 0.86,0.43 17.52,13.67 17.52,13.67 0,0 6.1,3.05 5.92,-1.1 -0.18,-4.15 -1.26,-33.72 -1.26,-33.72 0,0 -0.64,-3.62 -2.51,-4.78 -1.87,-1.16 -29.43,-17.79 -29.43,-17.79 0,0 -6.26,-1.77 -4.51,3.43zm254.67 18.04l-0.33 31.48c0,0 -0.47,2.98 2.41,2.93 2.87,-0.05 18.73,-15.35 18.73,-15.35 0,0 2.47,-0.66 3.6,-4.59 1.13,-3.93 8.83,-34.14 8.83,-34.14 0,0 0.61,-3.46 -1.96,-3.66 -2.58,-0.21 -28.88,18.71 -28.88,18.71 0,0 -2.44,0.88 -2.39,4.63zm-47.76 29.36l-0.31 31.42c0,0 -0.05,3.24 3.65,2.68 3.7,-0.55 28.34,-16.99 28.34,-16.99 0,0 3.3,-0.71 3.14,-5.17 -0.16,-4.46 0.15,-31.46 0.15,-31.46 0,0 -0.9,-4.87 -5.25,-2.47 -4.35,2.4 -27.41,16.55 -27.41,16.55 0,0 -2.25,1.08 -2.31,5.44zm-51.27 2.78l0.07 34.99c0,0 -0.59,3.37 3.41,3.42 4.01,0.05 32.29,-0.42 32.29,-0.42 0,0 4.67,0.6 4.55,-5.71 -0.11,-6.32 -0.22,-34.95 -0.22,-34.95 0,0 0.49,-4.17 -4.53,-4.25 -5.03,-0.09 -30.68,0.3 -30.68,0.3 0,0 -5.26,0.32 -4.89,6.61zm-54.31 0.17l0.04 34.26c0,0 -0.86,4.41 4.45,4.24 5.3,-0.16 32.47,-0.01 32.47,-0.01 0,0 4.82,0.72 4.94,-4.15 0.12,-4.88 -0.2,-35.07 -0.2,-35.07 0,0 1.12,-5.25 -3.16,-5.57 -4.29,-0.33 -34.91,-0.08 -34.91,-0.08 0,0 -4.34,0.09 -3.63,6.38zm-49.87 -18.83l0.44 31.55c0,0 -0.35,3.24 3.01,4.87 3.36,1.62 26.63,14.45 26.63,14.45 0,0 6.32,4.04 6.49,-3.05 0.18,-7.08 -0.96,-31.28 -0.96,-31.28 0,0 0.5,-3.74 -0.95,-4.77 -1.44,-1.04 -27.84,-15.3 -27.84,-15.3 0,0 -7.14,-1.44 -6.83,3.55zm323.34 -318.13c-1.93,25.18 -7.86,53.86 -14.94,69.34 -15.54,33.94 -37.79,29.39 -67.12,25.12 -18.85,-2.75 -38.2,-8.34 -55.11,-17.62 -9.19,-5.05 -18.02,-10.78 -24.93,-18.72 -16.65,-19.17 -25.8,-40.47 -25.59,-59.81 0.23,-21.21 11.74,-39.79 35.86,-53 42.49,-23.29 83.75,-39.85 112.68,-30.48 35.21,11.41 41.95,48.58 39.16,85.17zm-492.36 0c2.25,25.18 9.17,53.86 17.43,69.34 18.13,33.94 44.09,29.39 78.31,25.12 21.99,-2.75 44.57,-8.34 64.3,-17.62 10.72,-5.05 21.03,-10.78 29.09,-18.72 19.43,-19.17 30.1,-40.47 29.86,-59.81 -0.27,-21.21 -13.66,-40.07 -43.01,-51.19 -35.94,-13.61 -93.82,-30.53 -132.28,-22.96 -42.09,8.28 -46.97,39.24 -43.7,75.84zm213.63 183.57l18.26 15.65c2.62,2.25 5.37,2.66 8.17,0.59l18.56 -13.76c5.27,-3.91 7.58,-4.55 12.96,-0.66l21.06 15.23c2.37,1.72 5.4,2.67 7.85,0.47l17.25 -15.51c3.96,-3.56 3.36,-6.71 1.23,-10.92l-50.52 -99.7c-0.83,-1.64 -1.48,-2.92 -3.63,-3.06 -2.22,-0.15 -2.96,0.9 -3.8,2.57l-49.53 98.91c-0.86,1.7 -1.67,3.04 -1.38,5.07 0.35,2.46 1.79,3.65 3.51,5.13z"/>
   <g>
    <path class="fil0" d="M1247.95 537.53c-4.01,0 -7.33,3.32 -7.33,7.33l0 441.67c0,4.02 3.32,7.33 7.33,7.33l76.5 0c4.02,0 7.33,-3.32 7.33,-7.33l0 -334.25 129.95 236.06c4.27,7.24 13.05,10.99 21.36,10.99 8.28,0 17.03,-3.72 21.3,-10.9l123.68 -224.66 0 322.76c0,4.02 3.32,7.33 7.33,7.33l76.5 0c4.02,0 7.33,-3.32 7.33,-7.33l0 -441.67c0,-4.01 -3.32,-7.33 -7.33,-7.33l-91.53 0c-6.42,0 -14.8,6.45 -17.84,11.95l-119.44 216.96 -119.45 -216.96c-3.02,-5.5 -11.41,-11.95 -17.84,-11.95l-97.86 0z"/>
    <path class="fil0" d="M1861.4 1002.1c8.14,0.16 16.31,-0.29 24.38,-1.46 9.5,-1.38 18.76,-3.88 27.77,-7.15 11.92,-4.34 22.8,-12.25 33.17,-19.4l25.83 -17.83 0 31.08c0,3.76 2.87,7.33 6.77,7.33l73.97 0c3.91,0 6.77,-3.56 6.77,-7.33l0 -293.7c0,-3.76 -2.87,-7.33 -6.77,-7.33l-73.97 0c-3.91,0 -6.77,3.56 -6.77,7.33l0 139.76c-1.03,44.45 -12.5,95.64 -66.22,95.79 -48.38,1.97 -62.42,-38.73 -63.99,-80.35l-0.01 -0.37 0 -154.83c0,-3.76 -2.87,-7.33 -6.77,-7.33l-73.97 0c-3.91,0 -6.77,3.56 -6.77,7.33l0 184.56 0.26 5.05 0.19 2.77 -0.01 0 0.01 0.02 0.01 0.25 0.52 6.09 0 0.05 1.16 11.44 0.09 0.73c1.02,9.37 2.82,18.69 5.68,27.67 3.78,11.89 9.37,22.99 17.44,32.57l1.09 1.28 1.04 1.18 1.18 1.32 1.57 1.66 1.12 1.15 1.14 1.13 1.08 1.04 0.83 0.78 1.14 1.04 1.32 1.16 1.7 1.44 1.26 1.02 1.28 1.01 1.34 1.02 1.32 0.97 0.63 0.45 1.55 1.08 1.5 1 1.52 0.97 1.8 1.1 0.72 0.43 1.48 0.84 0.74 0.42 1.62 0.88 1.44 0.74 1.81 0.9 0.84 0.4 0.5 0.23c1.07,0.5 2.15,0.98 3.24,1.44l0.93 0.39 1.68 0.68 1.6 0.61 1.79 0.64c1.26,0.45 2.57,0.89 3.89,1.3 10.65,3.33 22.46,4.59 33.56,5.58z"/>
    <path class="fil0" d="M2430.26 532.52c-28.53,0 -51.65,23.13 -51.65,51.65 0,28.53 23.13,51.65 51.65,51.65 28.53,0 51.65,-23.12 51.65,-51.65 0,-28.53 -23.12,-51.65 -51.65,-51.65zm44.11 454.8l0 -293.69c0,-3.76 -2.86,-7.33 -6.77,-7.33l-73.97 0c-3.91,0 -6.77,3.57 -6.77,7.33l0 293.69c0,3.76 2.87,7.33 6.77,7.33l73.97 0c3.91,0 6.77,-3.56 6.77,-7.33z"/>
    <path class="fil0" d="M2312.57 763.62l20.41 -35.05c0.98,-1.89 2.04,-3.75 3.16,-5.57 3.74,-6.12 4.37,-9.14 -1.77,-12.86l-1.62 -0.93 -10.63 -5.74c-35.86,-18.4 -77.01,-29.94 -117.63,-27.77 -55.16,2.94 -102.43,28.89 -108.44,88.16 -4.04,39.89 10.33,69.32 46.11,87.41 22.82,11.54 50.05,15.95 74.7,22.37 10.46,2.73 20.84,5.46 30.57,10.32 12.89,6.44 24.5,17.69 19.93,33.37 -5.77,19.8 -32.75,25.47 -50.7,24.77 -24.05,-0.95 -55.19,-12.62 -75.83,-25.14 -6.26,-3.8 -12.67,-7.32 -18.8,-11.35 -3.08,-1.83 -5.02,-1.4 -7.15,1.4l-0.37 0.52 -0.07 0.13 -0.14 0.2c-10.53,15.4 -21.15,30.75 -31.53,46.24l-0.18 0.27c-0.96,1.44 -1.58,2.83 -0.41,4.16 0.37,0.35 0.74,0.68 1.11,1.02l0.15 0.13 0.05 0.06 0.21 0.18 0.15 0.15c0.64,0.58 1.36,1.18 2.07,1.77 0.36,0.27 0.71,0.56 1.05,0.85 30.23,24.11 91.64,37.77 129.61,38.51 57.3,1.11 125.26,-16.03 133.72,-82.54 4.3,-33.8 -5.11,-62.6 -33.35,-82.71 -18.72,-13.34 -39.31,-19.51 -61.32,-25.04 -10.76,-2.7 -21.57,-5.18 -32.34,-7.84 -7.89,-1.95 -16.09,-4.04 -23.67,-6.99 -13.87,-5.4 -23.42,-13.59 -24.28,-29.22l-0.02 -0.38 0.01 -0.38c0.88,-37.32 57.52,-31.45 81.27,-23.93 15.46,4.89 30.49,12.44 44.02,21.36l0.87 0.58c3.68,2.31 8.22,3.48 11.08,-0.48z"/>
    <path class="fil0" d="M2811.93 951.48l0.21 -0.27c1.06,-1.34 1.54,-3.12 1.54,-4.82 0,-1.73 -0.49,-3.54 -1.59,-4.89 -0.19,-0.23 -0.39,-0.44 -0.6,-0.63l-0.31 -0.27 -39.89 -41.54c-1.38,-1.42 -3.44,-2.09 -5.38,-2.09 -1.75,0 -3.62,0.53 -5.02,1.76l-0.69 0.73c-1.68,1.93 -3.44,3.8 -5.25,5.58l-0.6 0.64 -0.03 -0.03c-17.21,16.53 -40.19,25.85 -64.35,25.85 -50.62,0 -92.01,-40.68 -91.73,-91.49 0.28,-50.77 42.03,-91.38 92.63,-91.38 28.04,0 54.44,12.56 71.94,34.47 0.78,0.81 1.83,1.26 2.96,1.26 1.01,0 1.95,-0.35 2.72,-1.02 0.17,-0.15 0.34,-0.32 0.49,-0.51l0.27 -0.34 43.18 -45.19 0.37 -0.32c0.22,-0.19 0.43,-0.4 0.6,-0.62 0.57,-0.73 0.86,-1.6 0.86,-2.53 0,-1 -0.34,-1.93 -0.88,-2.57 -33.39,-36.31 -80.8,-56.25 -130.14,-56.25 -92.52,0 -173.31,71.19 -173.31,165.6 0,94.41 80.79,165.6 173.31,165.6 48.58,0 95.31,-19.33 128.72,-54.73z"/>
    <path class="fil1" d="M2396.84 462.12l89.59 0c6.52,0 6.61,-3.37 4.69,-6.89l-0.01 -0.03 -115.08 -166.83 111.3 -161.11c0.82,-2.33 0.37,-4.35 -2.77,-5.03l-89.45 0c-3.28,0 -5.31,0.98 -6.71,2.33 -0.25,0.25 -0.48,0.52 -0.67,0.78 -0.09,0.14 -0.19,0.3 -0.27,0.43l-2.45 4.17 -59.08 91.84 -60.81 -95.48 -0.72 -1.13c-1.49,-2.34 -3.22,-2.94 -6.05,-2.94l-90.1 0c-5.6,0 -6.46,2.49 -5.38,5.42l111.06 161.99 -114.53 165.7c-1.86,3.48 -1.7,6.78 4.75,6.78l87.21 0c2.73,0 4.33,-0.81 5.41,-1.91l67.26 -103.99 65.65 101.53c0.14,0.17 0.26,0.34 0.35,0.5l0.12 0.23 0.68 1.06c1.08,1.44 2.74,2.59 6,2.59z"/>
    <path class="fil1" d="M1760.72 468.46c46.92,0 79.26,-17.12 102.72,-43.12l0 3.31 0 26.15c0,4.01 3.32,7.33 7.33,7.33l20.39 0 37.79 0 20.38 0c4.01,0 7.33,-3.32 7.33,-7.33l0 -26.15 0 -163.74c0,-45.66 -11.41,-83.07 -36.78,-108.43 -24.1,-24.1 -62.14,-38.05 -114.77,-38.05 -54.8,0 -90.74,9.73 -126.26,24.83 -3.04,1.7 -4.4,5.44 -3.36,8.91l1.79 5.95 17.7 54.01 0.22 0.47c1.57,3.3 5.16,5.19 8.6,4.32 28.29,-10.02 53.17,-16.05 87.36,-16.05 48.2,0 72.93,22.19 72.93,62.14l0 5.71c-24.1,-8.25 -48.83,-13.95 -83.07,-13.95 -80.53,0 -136.97,34.24 -136.97,108.43l0 1.27c0,67.22 52.63,104 116.68,104zm29.17 -66.58c-31.08,0 -52.64,-15.22 -52.64,-41.22l0 -1.27c0,-30.44 25.37,-46.93 66.58,-46.93 23.46,0 45.03,5.07 61.51,12.68l0 17.12c0,34.88 -30.44,59.61 -75.46,59.61z"/>
    <path class="fil1" d="M1247.95 462.12l20.39 0 183.45 0c100.19,0 166.14,-40.58 166.14,-121.75l0 -1.26c0,-59.61 -31.7,-89.41 -83.06,-109.07 31.7,-17.76 58.33,-45.66 58.33,-95.75l0 -1.27c0,-30.43 -10.14,-55.16 -30.43,-75.46 -25.37,-25.36 -65.31,-39.32 -116.04,-39.32l-178.37 0 -20.39 0c-4.01,0 -7.33,3.32 -7.33,7.33l0 26.15 0 376.94 0 26.15c0,4.01 3.32,7.33 7.33,7.33zm87.79 -85.61l0 -97.65 112.87 0c50.09,0 72.29,18.39 72.29,48.19l0 1.27c0,32.97 -26,48.19 -69.12,48.19l-116.04 0zm0 -178.82l0 -93.85 96.39 0c41.22,0 64.04,16.49 64.04,45.66l0 1.26c0,32.97 -27.27,46.93 -70.39,46.93l-90.04 0z"/>
    <path class="fil0" d="M2063.59 0c-28.53,0 -51.65,23.12 -51.65,51.65 0,28.53 23.12,51.65 51.65,51.65 28.53,0 51.65,-23.13 51.65,-51.65 0,-28.53 -23.12,-51.65 -51.65,-51.65zm44.11 454.8l0 -293.7c0,-3.76 -2.87,-7.33 -6.77,-7.33l-73.97 0c-3.91,0 -6.77,3.56 -6.77,7.33l0 293.7c0,3.76 2.87,7.33 6.77,7.33l73.97 0c3.91,0 6.77,-3.56 6.77,-7.33z"/>
    <path class="fil1" d="M2616.48 468.46c46.93,0 79.27,-17.12 102.73,-43.12l0 3.31 0 26.15c0,4.01 3.32,7.33 7.33,7.33l20.38 0 37.79 0 20.38 0c4.02,0 7.33,-3.32 7.33,-7.33l0 -26.15 0 -163.74c0,-45.66 -11.41,-83.07 -36.78,-108.43 -24.1,-24.1 -62.14,-38.05 -114.77,-38.05 -54.81,0 -90.74,9.73 -126.26,24.83 -3.05,1.7 -4.4,5.44 -3.36,8.91l1.79 5.95 17.69 54.01 0.23 0.47c1.57,3.3 5.16,5.19 8.6,4.32 28.3,-10.02 53.18,-16.05 87.37,-16.05 48.2,0 72.92,22.19 72.92,62.14l0 5.71c-24.09,-8.25 -48.82,-13.95 -83.06,-13.95 -80.53,0 -136.97,34.24 -136.97,108.43l0 1.27c0,67.22 52.63,104 116.68,104zm29.17 -66.58c-31.07,0 -52.63,-15.22 -52.63,-41.22l0 -1.27c0,-30.44 25.37,-46.93 66.58,-46.93 23.46,0 45.02,5.07 61.51,12.68l0 17.12c0,34.88 -30.43,59.61 -75.46,59.61z"/>
   </g>
  </g>
 </g>
</svg>
