<?xml version="1.0" encoding="UTF-8"?>
<!DOCTYPE svg PUBLIC "-//W3C//DTD SVG 1.1//EN" "http://www.w3.org/Graphics/SVG/1.1/DTD/svg11.dtd">
<!-- Creator: CorelDRAW -->
<svg xmlns="http://www.w3.org/2000/svg" xml:space="preserve" width="33.8667mm" height="12.1088mm" version="1.1" style="shape-rendering:geometricPrecision; text-rendering:geometricPrecision; image-rendering:optimizeQuality; fill-rule:evenodd; clip-rule:evenodd"
viewBox="0 0 265.89 95.07"
 xmlns:xlink="http://www.w3.org/1999/xlink"
 xmlns:xodm="http://www.corel.com/coreldraw/odm/2003">
 <defs>
  <style type="text/css">
   <![CDATA[
    .fil0 {fill:#1DB954}
    .fil1 {fill:#1DB954}
    .fil2 {fill:#1DB954;fill-rule:nonzero}
   ]]>
  </style>
 </defs>
 <g id="Camada_x0020_1">
  <metadata id="CorelCorpID_0Corel-Layer"/>
  <g id="_1831708179264">
   <path class="fil0" d="M21.76 44.25l-2.65 -20.93c-0.08,-0.56 -0.14,-1.12 -0.15,-1.68 -0.05,-1.87 0.58,-3.61 1.4,-5.28 2.27,-4.62 6.59,-8.36 11.4,-11.13 5.23,-3.01 11.27,-5.3 20.43,-5.19 6.04,0.36 11.61,1.72 16.5,4.36 2.09,1.13 4.3,2.61 6.23,4.3 2.48,2.18 5.02,5.38 5.86,8.65 0.29,1.13 0.41,2.33 0.34,3.6l-2.52 22.29 3.44 5.27 0.01 0.01 0.01 0.01 0 0.01c0.11,0.16 0.29,0.4 0.36,0.56 0.03,0.07 0.05,0.13 0.06,0.2l0 0 0 0.01 0 0c0,0.03 0,0.06 0,0.09l0 0 0 0c-0.01,0.1 -0.04,0.2 -0.09,0.29 -0.12,0.2 -0.28,0.43 -0.42,0.63l-0.01 0.01 -0.01 0.01 -0.01 0.01 -8.89 13.75c-0.35,0.54 -0.58,0.55 -1.21,0.68l-5.24 1.05 -0.79 4.87 -0.04 0.26c-0.05,0.16 -0.17,0.27 -0.31,0.37l-0.2 0.13 -7.58 4.94c-0.16,0.06 -0.33,0.1 -0.5,0.11l-9.55 0.01c-0.2,0.01 -0.39,-0.04 -0.58,-0.12l-8.49 -4.84c-0.27,-0.19 -0.47,-0.41 -0.58,-0.67l-1.13 -4.94 -0.38 -0.41 -6.4 -1.24c-0.5,-0.1 -0.85,-0.15 -1.17,-0.57l-10.58 -13.54c-0.12,-0.17 -0.19,-0.33 -0.2,-0.48 -0.01,-0.14 0.02,-0.28 0.11,-0.41l3.52 -5.08zm41.43 -10.19c-0.59,0.96 -1.85,1.27 -2.81,0.68 -6.46,-3.95 -14.17,-3.97 -21.36,-2.32 -1.1,0.25 -2.2,-0.44 -2.45,-1.54 -0.25,-1.1 0.44,-2.2 1.54,-2.45 8.26,-1.89 17,-1.71 24.4,2.82 0.96,0.59 1.26,1.85 0.68,2.81zm3.03 -6.73c-0.7,1.14 -2.2,1.5 -3.34,0.8 -6.71,-4.13 -16.73,-5.11 -24.24,-2.83 -1.28,0.39 -2.64,-0.34 -3.03,-1.62 -0.39,-1.28 0.34,-2.64 1.62,-3.03 4.67,-1.42 9.77,-1.73 14.61,-1.16 4.71,0.56 9.54,2 13.59,4.5 1.14,0.7 1.5,2.2 0.8,3.34zm-0.42 -6.85c-7.38,-4.38 -20.23,-5.27 -28.34,-2.81 -1.49,0.45 -3.06,-0.39 -3.51,-1.88 -0.45,-1.49 0.39,-3.06 1.88,-3.51 9.62,-2.92 24.11,-1.83 32.85,3.36 1.33,0.79 1.78,2.52 0.98,3.86 -0.79,1.33 -2.52,1.78 -3.86,0.98zm20.83 30.98l-9.12 12.31c-0.32,0.43 0.12,0.68 0.49,0.49 10.05,-5.02 21.69,-4.59 24.99,-4.3 1,0.09 0.93,-0.12 0.84,-0.87 -0.08,-0.66 -0.2,-1.26 -0.38,-1.75 -0.45,-1.2 -1.25,-1.46 -2.1,-2.37 -0.15,-0.16 -0.31,-0.34 -0.46,-0.53 -1.34,-1.67 -1.64,-3.93 -1.03,-5.84 0.56,-1.78 2.98,-3.6 1.66,-6.02 -0.85,-1.55 -3.07,-2.41 -5.15,-2.82 -1.28,-0.25 -2.72,-0.69 -2.73,0.53 -0.03,2.68 -0.71,4.76 -1.59,6.41 -1.26,2.35 -3.16,3.8 -5.42,4.76zm-16.69 22.91c-0.16,-0.13 -0.33,-0.2 -0.51,-0.16 -0.36,0.07 -0.37,0.3 -0.44,0.61 -0.07,0.28 -0.16,0.7 -0.33,1.21 -0.37,1.15 -0.74,2.64 -0.93,3.46 -0.17,0.72 -0.08,0.68 -0.7,1.14 -0.73,0.54 -1.41,1.1 -2.28,1.6 -0.16,0.12 -0.29,0.17 -0.22,0.41 0.07,0.21 0.19,0.23 0.37,0.29 1.72,0.59 3.39,1.7 5.24,2.83 2.54,1.55 4.89,4.64 6.92,6.57 0.35,0.34 0.69,0.64 1.02,0.89 0.36,0.28 0.7,0.53 1.07,0.62 0.44,0.12 0.9,0.11 1.39,0.07 1.24,-0.09 1.77,0.08 2.62,-0.98 1.24,-1.54 1.21,-3.09 2.44,-4.87 0.79,-1.14 1.58,-1.84 1.76,-2.01 0.5,-0.47 1.41,-1.18 2.62,-1.78 0.54,-0.27 1.14,-0.53 1.76,-0.78 1.14,-0.45 1.47,-0.15 1.16,-1.38 -0.11,-0.43 -0.27,-0.84 -0.49,-1.23 -0.7,-1.23 -1.89,-2.17 -3.29,-2.39 -0.82,-0.13 -1.76,0.04 -2.84,0.12 -3.39,0.25 -13.43,-2.14 -16.35,-4.24zm-36.42 0.18c0.17,-0.14 0.35,-0.21 0.53,-0.18 0.38,0.07 0.39,0.3 0.47,0.62 0.07,0.29 0.18,0.72 0.36,1.24 0.41,1.18 0.81,2.72 1.02,3.56 0.18,0.74 0.09,0.7 0.75,1.17 0.78,0.54 1.49,1.11 2.41,1.6 0.17,0.12 0.31,0.17 0.23,0.42 -0.07,0.22 -0.2,0.25 -0.38,0.31 -1.8,0.65 -3.54,1.83 -5.48,3.04 -2.65,1.66 -5.09,4.91 -7.19,6.95 -0.37,0.36 -0.72,0.68 -1.07,0.95 -0.38,0.29 -0.73,0.56 -1.11,0.67 -0.47,0.13 -0.95,0.13 -1.46,0.1 -1.3,-0.07 -1.86,0.12 -2.76,-0.95 -1.32,-1.57 -1.31,-3.17 -2.61,-4.99 -0.84,-1.17 -1.68,-1.87 -1.87,-2.04 -0.53,-0.47 -1.49,-1.19 -2.77,-1.78 -0.57,-0.27 -1.2,-0.53 -1.85,-0.77 -1.2,-0.44 -1.54,-0.13 -1.23,-1.4 0.11,-0.44 0.27,-0.87 0.5,-1.28 0.72,-1.29 1.96,-2.29 3.43,-2.55 0.86,-0.15 1.85,0 2.98,0.06 3.56,0.19 14.09,-2.5 17.12,-4.75zm-18.43 -22.73l9.01 11.97c0.32,0.42 -0.06,0.66 -0.41,0.48 -9.4,-4.88 -19.89,-4.46 -22.85,-4.18 -0.9,0.08 -0.85,-0.12 -0.82,-0.84 0.03,-0.64 0.1,-1.22 0.24,-1.71 0.33,-1.17 1.04,-1.42 1.75,-2.31 0.13,-0.16 0.25,-0.33 0.38,-0.51 1.11,-1.62 1.23,-3.82 0.57,-5.67 -0.62,-1.73 -2.92,-3.5 -1.87,-5.85 0.67,-1.51 2.62,-2.35 4.48,-2.74 1.14,-0.24 2.42,-0.67 2.5,0.52 0.19,2.61 0.94,4.63 1.84,6.23 1.28,2.28 3.09,3.69 5.19,4.63zm23.29 22.62l1.18 3.48c0,0 0.09,0.28 0.17,0.32 0.08,0.04 1.66,1.29 1.66,1.29 0,0 0.58,0.29 0.56,-0.1 -0.02,-0.39 -0.12,-3.19 -0.12,-3.19 0,0 -0.06,-0.34 -0.24,-0.45 -0.18,-0.11 -2.78,-1.68 -2.78,-1.68 0,0 -0.59,-0.17 -0.43,0.32zm24.06 1.7l-0.03 2.98c0,0 -0.04,0.28 0.23,0.28 0.27,-0 1.77,-1.45 1.77,-1.45 0,0 0.23,-0.06 0.34,-0.43 0.11,-0.37 0.84,-3.23 0.84,-3.23 0,0 0.06,-0.33 -0.19,-0.35 -0.24,-0.02 -2.73,1.77 -2.73,1.77 0,0 -0.23,0.08 -0.23,0.44zm-4.51 2.77l-0.03 2.97c0,0 -0,0.31 0.34,0.25 0.35,-0.05 2.68,-1.61 2.68,-1.61 0,0 0.31,-0.07 0.3,-0.49 -0.01,-0.42 0.01,-2.97 0.01,-2.97 0,0 -0.08,-0.46 -0.5,-0.23 -0.41,0.23 -2.59,1.56 -2.59,1.56 0,0 -0.21,0.1 -0.22,0.51zm-4.84 0.26l0.01 3.31c0,0 -0.06,0.32 0.32,0.32 0.38,0 3.05,-0.04 3.05,-0.04 0,0 0.44,0.06 0.43,-0.54 -0.01,-0.6 -0.02,-3.3 -0.02,-3.3 0,0 0.05,-0.39 -0.43,-0.4 -0.47,-0.01 -2.9,0.03 -2.9,0.03 0,0 -0.5,0.03 -0.46,0.62zm-5.13 0.02l0 3.24c0,0 -0.08,0.42 0.42,0.4 0.5,-0.02 3.07,-0 3.07,-0 0,0 0.46,0.07 0.47,-0.39 0.01,-0.46 -0.02,-3.31 -0.02,-3.31 0,0 0.11,-0.5 -0.3,-0.53 -0.4,-0.03 -3.3,-0.01 -3.3,-0.01 0,0 -0.41,0.01 -0.34,0.6zm-4.71 -1.78l0.04 2.98c0,0 -0.03,0.31 0.28,0.46 0.32,0.15 2.52,1.37 2.52,1.37 0,0 0.6,0.38 0.61,-0.29 0.02,-0.67 -0.09,-2.96 -0.09,-2.96 0,0 0.05,-0.35 -0.09,-0.45 -0.14,-0.1 -2.63,-1.45 -2.63,-1.45 0,0 -0.67,-0.14 -0.64,0.34zm30.55 -30.06c-0.18,2.38 -0.74,5.09 -1.41,6.55 -1.47,3.21 -3.57,2.78 -6.34,2.37 -1.78,-0.26 -3.61,-0.79 -5.21,-1.67 -0.87,-0.48 -1.7,-1.02 -2.36,-1.77 -1.57,-1.81 -2.44,-3.82 -2.42,-5.65 0.02,-2 1.11,-3.76 3.39,-5.01 4.01,-2.2 7.91,-3.77 10.65,-2.88 3.33,1.08 3.96,4.59 3.7,8.05zm-46.52 0c0.21,2.38 0.87,5.09 1.65,6.55 1.71,3.21 4.17,2.78 7.4,2.37 2.08,-0.26 4.21,-0.79 6.08,-1.67 1.01,-0.48 1.99,-1.02 2.75,-1.77 1.84,-1.81 2.84,-3.82 2.82,-5.65 -0.03,-2 -1.29,-3.79 -4.06,-4.84 -3.4,-1.29 -8.86,-2.88 -12.5,-2.17 -3.98,0.78 -4.44,3.71 -4.13,7.16zm20.18 17.34l1.72 1.48c0.25,0.21 0.51,0.25 0.77,0.05l1.75 -1.3c0.5,-0.37 0.72,-0.43 1.22,-0.06l1.99 1.44c0.22,0.16 0.51,0.25 0.74,0.04l1.63 -1.46c0.37,-0.34 0.32,-0.63 0.12,-1.03l-4.77 -9.42c-0.08,-0.15 -0.14,-0.28 -0.34,-0.29 -0.21,-0.01 -0.28,0.08 -0.36,0.24l-4.68 9.35c-0.08,0.16 -0.16,0.29 -0.13,0.48 0.03,0.23 0.17,0.34 0.33,0.48z"/>
   <g>
    <path class="fil1" d="M117.91 50.79c-0.38,0 -0.69,0.31 -0.69,0.69l0 41.73c0,0.38 0.31,0.69 0.69,0.69l7.23 0c0.38,0 0.69,-0.31 0.69,-0.69l0 -31.58 12.28 22.3c0.4,0.68 1.23,1.04 2.02,1.04 0.78,0 1.61,-0.35 2.01,-1.03l11.68 -21.23 0 30.49c0,0.38 0.31,0.69 0.69,0.69l7.23 0c0.38,0 0.69,-0.31 0.69,-0.69l0 -41.73c0,-0.38 -0.31,-0.69 -0.69,-0.69l-8.65 0c-0.61,0 -1.4,0.61 -1.69,1.13l-11.29 20.5 -11.29 -20.5c-0.29,-0.52 -1.08,-1.13 -1.68,-1.13l-9.25 0z"/>
    <path class="fil1" d="M175.87 94.68c0.77,0.02 1.54,-0.03 2.3,-0.14 0.9,-0.13 1.77,-0.37 2.62,-0.68 1.13,-0.41 2.15,-1.16 3.13,-1.83l2.44 -1.68 0 2.94c0,0.36 0.27,0.69 0.64,0.69l6.99 0c0.37,0 0.64,-0.34 0.64,-0.69l0 -27.75c0,-0.36 -0.27,-0.69 -0.64,-0.69l-6.99 0c-0.37,0 -0.64,0.34 -0.64,0.69l0 13.2c-0.1,4.2 -1.18,9.04 -6.26,9.05 -4.57,0.19 -5.9,-3.66 -6.05,-7.59l-0 -0.03 0 -14.63c0,-0.36 -0.27,-0.69 -0.64,-0.69l-6.99 0c-0.37,0 -0.64,0.34 -0.64,0.69l0 17.44 0.02 0.48 0.02 0.26 -0 0 0 0 0 0.02 0.05 0.57 0 0 0.11 1.08 0.01 0.07c0.1,0.88 0.27,1.76 0.54,2.61 0.36,1.12 0.88,2.17 1.65,3.08l0.1 0.12 0.1 0.11 0.11 0.12 0.15 0.16 0.11 0.11 0.11 0.11 0.1 0.1 0.08 0.07 0.11 0.1 0.12 0.11 0.16 0.14 0.12 0.1 0.12 0.1 0.13 0.1 0.12 0.09 0.06 0.04 0.15 0.1 0.14 0.09 0.14 0.09 0.17 0.1 0.07 0.04 0.14 0.08 0.07 0.04 0.15 0.08 0.14 0.07 0.17 0.08 0.08 0.04 0.05 0.02c0.1,0.05 0.2,0.09 0.31,0.14l0.09 0.04 0.16 0.06 0.15 0.06 0.17 0.06c0.12,0.04 0.24,0.08 0.37,0.12 1.01,0.31 2.12,0.43 3.17,0.53z"/>
    <path class="fil1" d="M229.62 50.31c-2.7,0 -4.88,2.18 -4.88,4.88 0,2.7 2.18,4.88 4.88,4.88 2.7,0 4.88,-2.18 4.88,-4.88 0,-2.7 -2.18,-4.88 -4.88,-4.88zm4.17 42.97l0 -27.75c0,-0.36 -0.27,-0.69 -0.64,-0.69l-6.99 0c-0.37,0 -0.64,0.34 -0.64,0.69l0 27.75c0,0.35 0.27,0.69 0.64,0.69l6.99 0c0.37,0 0.64,-0.34 0.64,-0.69z"/>
    <path class="fil1" d="M218.5 72.15l1.93 -3.31c0.09,-0.18 0.19,-0.35 0.3,-0.53 0.35,-0.58 0.41,-0.86 -0.17,-1.22l-0.15 -0.09 -1 -0.54c-3.39,-1.74 -7.28,-2.83 -11.11,-2.62 -5.21,0.28 -9.68,2.73 -10.25,8.33 -0.38,3.77 0.98,6.55 4.36,8.26 2.16,1.09 4.73,1.51 7.06,2.11 0.99,0.26 1.97,0.52 2.89,0.98 1.22,0.61 2.31,1.67 1.88,3.15 -0.55,1.87 -3.09,2.41 -4.79,2.34 -2.27,-0.09 -5.21,-1.19 -7.16,-2.38 -0.59,-0.36 -1.2,-0.69 -1.78,-1.07 -0.29,-0.17 -0.47,-0.13 -0.68,0.13l-0.03 0.05 -0.01 0.01 -0.01 0.02c-1,1.45 -2,2.9 -2.98,4.37l-0.02 0.02c-0.09,0.14 -0.15,0.27 -0.04,0.39 0.03,0.03 0.07,0.06 0.1,0.1l0.01 0.01 0.01 0.01 0.02 0.02 0.01 0.01c0.06,0.05 0.13,0.11 0.2,0.17 0.03,0.03 0.07,0.05 0.1,0.08 2.86,2.28 8.66,3.57 12.24,3.64 5.41,0.11 11.83,-1.51 12.63,-7.8 0.41,-3.19 -0.48,-5.91 -3.15,-7.81 -1.77,-1.26 -3.71,-1.84 -5.79,-2.37 -1.02,-0.26 -2.04,-0.49 -3.06,-0.74 -0.75,-0.18 -1.52,-0.38 -2.24,-0.66 -1.31,-0.51 -2.21,-1.29 -2.29,-2.76l-0 -0.04 0 -0.04c0.08,-3.53 5.43,-2.97 7.68,-2.26 1.46,0.46 2.88,1.18 4.16,2.02l0.08 0.05c0.35,0.22 0.78,0.33 1.05,-0.04z"/>
    <path class="fil1" d="M265.68 89.9l0.02 -0.02c0.1,-0.13 0.15,-0.3 0.15,-0.46 0,-0.16 -0.05,-0.33 -0.15,-0.46 -0.02,-0.02 -0.04,-0.04 -0.06,-0.06l-0.03 -0.03 -3.77 -3.92c-0.13,-0.14 -0.32,-0.2 -0.51,-0.2 -0.17,0 -0.34,0.05 -0.47,0.17l-0.06 0.07c-0.16,0.18 -0.33,0.36 -0.5,0.53l-0.06 0.06 -0 -0c-1.63,1.56 -3.8,2.44 -6.08,2.44 -4.78,0 -8.69,-3.84 -8.67,-8.64 0.03,-4.8 3.97,-8.63 8.75,-8.63 2.65,0 5.14,1.19 6.8,3.26 0.07,0.08 0.17,0.12 0.28,0.12 0.1,0 0.18,-0.03 0.26,-0.1 0.02,-0.01 0.03,-0.03 0.05,-0.05l0.03 -0.03 4.08 -4.27 0.03 -0.03c0.02,-0.02 0.04,-0.04 0.06,-0.06 0.05,-0.07 0.08,-0.15 0.08,-0.24 0,-0.09 -0.03,-0.18 -0.08,-0.24 -3.15,-3.43 -7.63,-5.31 -12.3,-5.31 -8.74,0 -16.38,6.73 -16.38,15.65 0,8.92 7.63,15.65 16.38,15.65 4.59,0 9.01,-1.83 12.16,-5.17z"/>
    <path class="fil2" d="M226.46 43.66l8.46 0c0.62,0 0.62,-0.32 0.44,-0.65l-0 -0 -10.87 -15.76 10.52 -15.22c0.08,-0.22 0.03,-0.41 -0.26,-0.48l-8.45 0c-0.31,0 -0.5,0.09 -0.63,0.22 -0.02,0.02 -0.05,0.05 -0.06,0.07 -0.01,0.01 -0.02,0.03 -0.03,0.04l-0.23 0.39 -5.58 8.68 -5.75 -9.02 -0.07 -0.11c-0.14,-0.22 -0.3,-0.28 -0.57,-0.28l-8.51 0c-0.53,0 -0.61,0.24 -0.51,0.51l10.49 15.3 -10.82 15.66c-0.18,0.33 -0.16,0.64 0.45,0.64l8.24 0c0.26,0 0.41,-0.08 0.51,-0.18l6.35 -9.82 6.2 9.59c0.01,0.02 0.02,0.03 0.03,0.05l0.01 0.02 0.06 0.1c0.1,0.14 0.26,0.24 0.57,0.24z"/>
    <path class="fil2" d="M166.36 44.26c4.43,0 7.49,-1.62 9.71,-4.07l0 0.31 0 2.47c0,0.38 0.31,0.69 0.69,0.69l1.93 0 3.57 0 1.93 0c0.38,0 0.69,-0.31 0.69,-0.69l0 -2.47 0 -15.47c0,-4.31 -1.08,-7.85 -3.47,-10.25 -2.28,-2.28 -5.87,-3.6 -10.84,-3.6 -5.18,0 -8.57,0.92 -11.93,2.35 -0.29,0.16 -0.42,0.52 -0.32,0.84l0.17 0.56 1.67 5.1 0.02 0.04c0.15,0.31 0.49,0.49 0.81,0.41 2.67,-0.95 5.02,-1.52 8.25,-1.52 4.55,0 6.89,2.1 6.89,5.87l0 0.54c-2.28,-0.78 -4.61,-1.32 -7.85,-1.32 -7.61,0 -12.94,3.24 -12.94,10.25l0 0.12c0,6.35 4.97,9.83 11.02,9.83zm2.76 -6.29c-2.94,0 -4.97,-1.44 -4.97,-3.89l0 -0.12c0,-2.88 2.4,-4.43 6.29,-4.43 2.22,0 4.25,0.48 5.81,1.2l0 1.62c0,3.3 -2.88,5.63 -7.13,5.63z"/>
    <path class="fil2" d="M117.91 43.66l1.93 0 17.33 0c9.47,0 15.7,-3.83 15.7,-11.5l0 -0.12c0,-5.63 -3,-8.45 -7.85,-10.31 3,-1.68 5.51,-4.31 5.51,-9.05l0 -0.12c0,-2.88 -0.96,-5.21 -2.88,-7.13 -2.4,-2.4 -6.17,-3.71 -10.96,-3.71l-16.85 0 -1.93 0c-0.38,0 -0.69,0.31 -0.69,0.69l0 2.47 0 35.61 0 2.47c0,0.38 0.31,0.69 0.69,0.69zm8.29 -8.09l0 -9.23 10.66 0c4.73,0 6.83,1.74 6.83,4.55l0 0.12c0,3.12 -2.46,4.55 -6.53,4.55l-10.96 0zm0 -16.9l0 -8.87 9.11 0c3.89,0 6.05,1.56 6.05,4.31l0 0.12c0,3.12 -2.58,4.43 -6.65,4.43l-8.51 0z"/>
    <path class="fil1" d="M194.97 0c-2.7,0 -4.88,2.18 -4.88,4.88 0,2.7 2.18,4.88 4.88,4.88 2.7,0 4.88,-2.18 4.88,-4.88 0,-2.7 -2.18,-4.88 -4.88,-4.88zm4.17 42.97l0 -27.75c0,-0.36 -0.27,-0.69 -0.64,-0.69l-6.99 0c-0.37,0 -0.64,0.34 -0.64,0.69l0 27.75c0,0.36 0.27,0.69 0.64,0.69l6.99 0c0.37,0 0.64,-0.34 0.64,-0.69z"/>
    <path class="fil2" d="M247.21 44.26c4.43,0 7.49,-1.62 9.71,-4.07l0 0.31 0 2.47c0,0.38 0.31,0.69 0.69,0.69l1.93 0 3.57 0 1.93 0c0.38,0 0.69,-0.31 0.69,-0.69l0 -2.47 0 -15.47c0,-4.31 -1.08,-7.85 -3.47,-10.25 -2.28,-2.28 -5.87,-3.6 -10.84,-3.6 -5.18,0 -8.57,0.92 -11.93,2.35 -0.29,0.16 -0.42,0.52 -0.32,0.84l0.17 0.56 1.67 5.1 0.02 0.04c0.15,0.31 0.49,0.49 0.81,0.41 2.67,-0.95 5.02,-1.52 8.25,-1.52 4.55,0 6.89,2.1 6.89,5.87l0 0.54c-2.28,-0.78 -4.61,-1.32 -7.85,-1.32 -7.61,0 -12.94,3.24 -12.94,10.25l0 0.12c0,6.35 4.97,9.83 11.02,9.83zm2.76 -6.29c-2.94,0 -4.97,-1.44 -4.97,-3.89l0 -0.12c0,-2.88 2.4,-4.43 6.29,-4.43 2.22,0 4.25,0.48 5.81,1.2l0 1.62c0,3.3 -2.88,5.63 -7.13,5.63z"/>
   </g>
  </g>
 </g>
</svg>
