<?xml version="1.0" encoding="UTF-8"?>
<!DOCTYPE svg PUBLIC "-//W3C//DTD SVG 1.1//EN" "http://www.w3.org/Graphics/SVG/1.1/DTD/svg11.dtd">
<!-- Creator: CorelDRAW -->
<svg xmlns="http://www.w3.org/2000/svg" xml:space="preserve" width="42.3334mm" height="15.136mm" version="1.1" style="shape-rendering:geometricPrecision; text-rendering:geometricPrecision; image-rendering:optimizeQuality; fill-rule:evenodd; clip-rule:evenodd"
viewBox="0 0 686.51 245.46"
 xmlns:xlink="http://www.w3.org/1999/xlink"
 xmlns:xodm="http://www.corel.com/coreldraw/odm/2003">
 <defs>
  <style type="text/css">
   <![CDATA[
    .fil0 {fill:#5CBB64}
    .fil1 {fill:#5CBB64;fill-rule:nonzero}
   ]]>
  </style>
 </defs>
 <g id="Camada_x0020_1">
  <metadata id="CorelCorpID_0Corel-Layer"/>
  <g id="_2800233442256">
   <path class="fil0" d="M56.18 114.25l-6.83 -54.05c-0.22,-1.44 -0.36,-2.88 -0.4,-4.33 -0.13,-4.83 1.49,-9.33 3.61,-13.63 5.86,-11.92 17.01,-21.59 29.43,-28.73 13.51,-7.77 29.11,-13.68 52.75,-13.4 15.58,0.93 29.98,4.45 42.61,11.27 5.4,2.91 11.11,6.73 16.1,11.11 6.41,5.64 12.95,13.89 15.12,22.33 0.75,2.92 1.06,6.01 0.88,9.3l-6.51 57.55 8.88 13.6 0.01 0.02 0.01 0.02 0.01 0.02c0.28,0.42 0.74,1.03 0.93,1.45 0.08,0.17 0.12,0.34 0.14,0.52l0 0.01 0 0.02 0 0c0.01,0.08 0.01,0.16 0,0.24l-0 0 0 0c-0.02,0.26 -0.1,0.51 -0.24,0.76 -0.31,0.53 -0.72,1.1 -1.07,1.63l-0.02 0.03 -0.02 0.03 -0.02 0.02 -22.96 35.5c-0.91,1.41 -1.49,1.43 -3.11,1.76l-13.53 2.72 -2.03 12.57 -0.11 0.68c-0.12,0.41 -0.44,0.7 -0.81,0.96l-0.51 0.33 -19.56 12.75c-0.41,0.16 -0.85,0.26 -1.3,0.28l-24.66 0.04c-0.51,0.02 -1,-0.09 -1.49,-0.31l-21.91 -12.49c-0.7,-0.49 -1.21,-1.06 -1.48,-1.73l-2.93 -12.74 -0.97 -1.05 -16.52 -3.19c-1.29,-0.25 -2.19,-0.4 -3.03,-1.48l-27.32 -34.96c-0.31,-0.43 -0.48,-0.85 -0.52,-1.25 -0.04,-0.37 0.05,-0.73 0.27,-1.07l9.09 -13.11zm106.98 -26.31c-1.51,2.48 -4.77,3.27 -7.26,1.75 -16.68,-10.19 -36.6,-10.24 -55.15,-6 -2.83,0.65 -5.67,-1.14 -6.32,-3.97 -0.65,-2.83 1.14,-5.67 3.97,-6.32 21.33,-4.87 43.89,-4.4 63,7.28 2.48,1.51 3.26,4.78 1.75,7.26zm7.81 -17.39c-1.81,2.94 -5.69,3.87 -8.63,2.06 -17.33,-10.65 -43.2,-13.19 -62.59,-7.31 -3.31,1.01 -6.83,-0.87 -7.83,-4.18 -1,-3.31 0.87,-6.82 4.18,-7.82 12.05,-3.66 25.23,-4.47 37.71,-2.99 12.16,1.44 24.62,5.17 35.09,11.61 2.94,1.81 3.87,5.69 2.06,8.63zm-1.09 -17.67c-19.05,-11.31 -52.23,-13.62 -73.17,-7.26 -3.84,1.17 -7.9,-1 -9.07,-4.84 -1.16,-3.84 1.01,-7.9 4.85,-9.07 24.82,-7.54 62.24,-4.72 84.81,8.67 3.45,2.04 4.59,6.51 2.54,9.96 -2.04,3.45 -6.52,4.59 -9.96,2.54zm53.78 79.98l-23.54 31.78c-0.83,1.12 0.3,1.76 1.27,1.28 25.96,-12.95 55.99,-11.85 64.52,-11.11 2.59,0.22 2.4,-0.31 2.18,-2.23 -0.19,-1.71 -0.51,-3.24 -0.99,-4.53 -1.16,-3.1 -3.23,-3.78 -5.42,-6.12 -0.39,-0.42 -0.79,-0.87 -1.17,-1.36 -3.46,-4.32 -4.22,-10.14 -2.67,-15.07 1.45,-4.59 7.7,-9.29 4.29,-15.54 -2.18,-4 -7.92,-6.23 -13.3,-7.29 -3.29,-0.65 -7.02,-1.78 -7.05,1.37 -0.07,6.93 -1.84,12.29 -4.12,16.54 -3.25,6.07 -8.17,9.8 -13.99,12.28zm-43.08 59.14c-0.43,-0.34 -0.86,-0.51 -1.31,-0.42 -0.92,0.18 -0.95,0.78 -1.13,1.56 -0.17,0.73 -0.42,1.8 -0.84,3.11 -0.96,2.97 -1.91,6.83 -2.4,8.93 -0.43,1.85 -0.2,1.76 -1.81,2.95 -1.89,1.4 -3.64,2.85 -5.88,4.12 -0.42,0.3 -0.76,0.45 -0.56,1.07 0.17,0.54 0.49,0.6 0.95,0.76 4.44,1.53 8.76,4.39 13.53,7.31 6.55,4 12.63,11.97 17.86,16.97 0.91,0.87 1.79,1.65 2.64,2.3 0.93,0.72 1.81,1.36 2.76,1.61 1.15,0.3 2.33,0.28 3.59,0.18 3.2,-0.24 4.56,0.2 6.76,-2.52 3.21,-3.98 3.13,-7.98 6.29,-12.58 2.03,-2.96 4.07,-4.75 4.54,-5.19 1.3,-1.21 3.63,-3.03 6.76,-4.59 1.4,-0.7 2.93,-1.38 4.53,-2.01 2.94,-1.16 3.79,-0.39 3,-3.56 -0.28,-1.1 -0.69,-2.16 -1.26,-3.17 -1.8,-3.18 -4.88,-5.6 -8.49,-6.18 -2.13,-0.34 -4.55,0.1 -7.32,0.3 -8.75,0.65 -34.68,-5.51 -42.2,-10.95zm-94.03 0.48c0.44,-0.36 0.9,-0.54 1.37,-0.46 0.97,0.17 1.01,0.78 1.21,1.59 0.19,0.76 0.46,1.85 0.92,3.2 1.05,3.06 2.08,7.03 2.62,9.19 0.48,1.9 0.23,1.82 1.94,3.02 2,1.41 3.85,2.87 6.22,4.14 0.45,0.3 0.81,0.44 0.6,1.1 -0.17,0.56 -0.51,0.63 -0.99,0.8 -4.65,1.68 -9.15,4.73 -14.14,7.86 -6.83,4.29 -13.14,12.66 -18.57,17.95 -0.94,0.92 -1.86,1.75 -2.75,2.44 -0.97,0.76 -1.89,1.45 -2.88,1.72 -1.2,0.34 -2.45,0.34 -3.77,0.27 -3.36,-0.18 -4.79,0.31 -7.13,-2.46 -3.42,-4.05 -3.38,-8.19 -6.75,-12.88 -2.16,-3.02 -4.33,-4.83 -4.83,-5.28 -1.38,-1.23 -3.85,-3.06 -7.16,-4.6 -1.48,-0.69 -3.09,-1.37 -4.79,-1.98 -3.11,-1.14 -3.98,-0.33 -3.19,-3.63 0.28,-1.15 0.7,-2.26 1.28,-3.31 1.86,-3.33 5.06,-5.9 8.85,-6.58 2.23,-0.4 4.78,0 7.69,0.15 9.2,0.48 36.37,-6.46 44.21,-12.25zm-47.59 -58.69l23.25 30.89c0.82,1.09 -0.16,1.71 -1.07,1.24 -24.26,-12.59 -51.34,-11.52 -59,-10.8 -2.33,0.22 -2.18,-0.3 -2.11,-2.17 0.07,-1.66 0.26,-3.15 0.61,-4.4 0.86,-3.01 2.69,-3.68 4.52,-5.95 0.33,-0.41 0.66,-0.85 0.98,-1.32 2.86,-4.2 3.19,-9.86 1.48,-14.65 -1.6,-4.46 -7.54,-9.03 -4.84,-15.11 1.73,-3.89 6.77,-6.06 11.57,-7.09 2.94,-0.63 6.23,-1.73 6.46,1.33 0.5,6.73 2.43,11.95 4.75,16.08 3.31,5.89 7.99,9.53 13.41,11.94zm60.14 58.41l3.04 8.99c0,0 0.24,0.73 0.44,0.84 0.21,0.1 4.27,3.34 4.27,3.34 0,0 1.49,0.74 1.44,-0.27 -0.05,-1.01 -0.31,-8.23 -0.31,-8.23 0,0 -0.16,-0.88 -0.61,-1.17 -0.46,-0.28 -7.18,-4.34 -7.18,-4.34 0,0 -1.53,-0.43 -1.1,0.84zm62.12 4.4l-0.08 7.68c0,0 -0.11,0.73 0.59,0.71 0.7,-0.01 4.57,-3.74 4.57,-3.74 0,0 0.6,-0.16 0.88,-1.12 0.28,-0.96 2.16,-8.33 2.16,-8.33 0,0 0.15,-0.84 -0.48,-0.89 -0.63,-0.05 -7.05,4.56 -7.05,4.56 0,0 -0.6,0.22 -0.58,1.13zm-11.65 7.16l-0.08 7.67c0,0 -0.01,0.79 0.89,0.65 0.9,-0.13 6.91,-4.14 6.91,-4.14 0,0 0.8,-0.17 0.77,-1.26 -0.04,-1.09 0.04,-7.67 0.04,-7.67 0,0 -0.22,-1.19 -1.28,-0.6 -1.06,0.59 -6.69,4.04 -6.69,4.04 0,0 -0.55,0.26 -0.56,1.33zm-12.51 0.68l0.02 8.54c0,0 -0.14,0.82 0.83,0.83 0.98,0.01 7.88,-0.1 7.88,-0.1 0,0 1.14,0.15 1.11,-1.39 -0.03,-1.54 -0.06,-8.53 -0.06,-8.53 0,0 0.12,-1.02 -1.11,-1.04 -1.23,-0.02 -7.48,0.07 -7.48,0.07 0,0 -1.28,0.08 -1.19,1.61zm-13.25 0.04l0.01 8.36c0,0 -0.21,1.08 1.08,1.03 1.29,-0.04 7.92,-0 7.92,-0 0,0 1.17,0.18 1.2,-1.01 0.03,-1.19 -0.05,-8.55 -0.05,-8.55 0,0 0.27,-1.28 -0.77,-1.36 -1.05,-0.08 -8.52,-0.02 -8.52,-0.02 0,0 -1.06,0.02 -0.88,1.56zm-12.17 -4.59l0.11 7.7c0,0 -0.08,0.79 0.74,1.19 0.82,0.4 6.49,3.52 6.49,3.52 0,0 1.54,0.98 1.59,-0.74 0.04,-1.73 -0.24,-7.63 -0.24,-7.63 0,0 0.12,-0.91 -0.23,-1.16 -0.35,-0.25 -6.79,-3.73 -6.79,-3.73 0,0 -1.74,-0.35 -1.67,0.87zm78.87 -77.61c-0.47,6.14 -1.92,13.14 -3.64,16.92 -3.79,8.28 -9.22,7.17 -16.37,6.13 -4.6,-0.67 -9.32,-2.03 -13.44,-4.3 -2.24,-1.23 -4.4,-2.63 -6.08,-4.57 -4.06,-4.68 -6.29,-9.87 -6.24,-14.59 0.06,-5.17 2.86,-9.71 8.75,-12.93 10.37,-5.68 20.43,-9.72 27.49,-7.44 8.59,2.78 10.24,11.85 9.55,20.78zm-120.11 0c0.55,6.14 2.24,13.14 4.25,16.92 4.42,8.28 10.75,7.17 19.1,6.13 5.36,-0.67 10.87,-2.03 15.69,-4.3 2.62,-1.23 5.13,-2.63 7.09,-4.57 4.74,-4.68 7.34,-9.87 7.28,-14.59 -0.06,-5.17 -3.33,-9.77 -10.49,-12.49 -8.77,-3.32 -22.89,-7.45 -32.27,-5.6 -10.27,2.02 -11.46,9.57 -10.66,18.5zm52.11 44.78l4.45 3.82c0.64,0.55 1.31,0.65 1.99,0.14l4.53 -3.36c1.28,-0.95 1.85,-1.11 3.16,-0.16l5.14 3.72c0.58,0.42 1.32,0.65 1.92,0.11l4.21 -3.78c0.97,-0.87 0.82,-1.64 0.3,-2.66l-12.32 -24.32c-0.2,-0.4 -0.36,-0.71 -0.89,-0.75 -0.54,-0.04 -0.72,0.22 -0.93,0.63l-12.08 24.13c-0.21,0.42 -0.41,0.74 -0.34,1.24 0.09,0.6 0.43,0.89 0.86,1.25z"/>
   <g>
    <path class="fil0" d="M304.43 131.13c-0.98,0 -1.79,0.81 -1.79,1.79l0 107.74c0,0.98 0.81,1.79 1.79,1.79l18.66 0c0.98,0 1.79,-0.81 1.79,-1.79l0 -81.54 31.7 57.58c1.04,1.77 3.18,2.68 5.21,2.68 2.02,0 4.15,-0.91 5.2,-2.66l30.17 -54.8 0 78.73c0,0.98 0.81,1.79 1.79,1.79l18.66 0c0.98,0 1.79,-0.81 1.79,-1.79l0 -107.74c0,-0.98 -0.81,-1.79 -1.79,-1.79l-22.33 0c-1.57,0 -3.61,1.57 -4.35,2.92l-29.14 52.93 -29.14 -52.93c-0.74,-1.34 -2.78,-2.92 -4.35,-2.92l-23.87 0z"/>
    <path class="fil0" d="M454.07 244.45c1.99,0.04 3.98,-0.07 5.95,-0.36 2.32,-0.34 4.58,-0.95 6.77,-1.74 2.91,-1.06 5.56,-2.99 8.09,-4.73l6.3 -4.35 0 7.58c0,0.92 0.7,1.79 1.65,1.79l18.04 0c0.95,0 1.65,-0.87 1.65,-1.79l0 -71.65c0,-0.92 -0.7,-1.79 -1.65,-1.79l-18.04 0c-0.95,0 -1.65,0.87 -1.65,1.79l-0 34.09c-0.25,10.84 -3.05,23.33 -16.15,23.37 -11.8,0.48 -15.22,-9.45 -15.61,-19.6l-0 -0.09 0 -37.77c0,-0.92 -0.7,-1.79 -1.65,-1.79l-18.04 0c-0.95,0 -1.65,0.87 -1.65,1.79l0 45.02 0.06 1.23 0.05 0.68 -0 0 0 0 0 0.06 0.13 1.49 0 0.01 0.28 2.79 0.02 0.18c0.25,2.28 0.69,4.56 1.38,6.75 0.92,2.9 2.28,5.61 4.26,7.94l0.27 0.31 0.25 0.29 0.29 0.32 0.38 0.41 0.28 0.28 0.28 0.28 0.26 0.25 0.2 0.19 0.28 0.25 0.32 0.28 0.42 0.35 0.3 0.25 0.31 0.25 0.33 0.25 0.32 0.24 0.15 0.11 0.38 0.26 0.36 0.24 0.37 0.24 0.44 0.27 0.18 0.1 0.36 0.21 0.18 0.1 0.39 0.21 0.35 0.18 0.44 0.22 0.2 0.1 0.12 0.06c0.26,0.12 0.53,0.24 0.79,0.35l0.23 0.09 0.41 0.17 0.39 0.15 0.44 0.16c0.31,0.11 0.63,0.22 0.95,0.32 2.6,0.81 5.48,1.12 8.19,1.36z"/>
    <path class="fil0" d="M592.84 129.9c-6.96,0 -12.6,5.64 -12.6,12.6 0,6.96 5.64,12.6 12.6,12.6 6.96,0 12.6,-5.64 12.6,-12.6 0,-6.96 -5.64,-12.6 -12.6,-12.6zm10.76 110.94l0 -71.64c0,-0.92 -0.7,-1.79 -1.65,-1.79l-18.04 0c-0.95,0 -1.65,0.87 -1.65,1.79l0 71.64c0,0.92 0.7,1.79 1.65,1.79l18.04 0c0.95,0 1.65,-0.87 1.65,-1.79z"/>
    <path class="fil0" d="M564.13 186.28l4.98 -8.55c0.24,-0.46 0.5,-0.91 0.77,-1.36 0.91,-1.49 1.07,-2.23 -0.43,-3.14l-0.39 -0.23 -2.59 -1.4c-8.75,-4.49 -18.79,-7.3 -28.69,-6.77 -13.46,0.72 -24.99,7.05 -26.45,21.51 -0.99,9.73 2.52,16.91 11.25,21.32 5.57,2.82 12.21,3.89 18.22,5.46 2.55,0.66 5.09,1.33 7.46,2.52 3.14,1.57 5.98,4.32 4.86,8.14 -1.41,4.83 -7.99,6.21 -12.37,6.04 -5.87,-0.23 -13.46,-3.08 -18.5,-6.13 -1.53,-0.93 -3.09,-1.79 -4.59,-2.77 -0.75,-0.45 -1.22,-0.34 -1.74,0.34l-0.09 0.13 -0.02 0.03 -0.03 0.05c-2.57,3.76 -5.16,7.5 -7.69,11.28l-0.04 0.06c-0.23,0.35 -0.38,0.69 -0.1,1.02 0.09,0.08 0.18,0.17 0.27,0.25l0.04 0.03 0.01 0.01 0.05 0.04 0.04 0.04c0.16,0.14 0.33,0.29 0.51,0.43 0.09,0.07 0.17,0.14 0.25,0.21 7.37,5.88 22.35,9.21 31.62,9.39 13.98,0.27 30.56,-3.91 32.62,-20.13 1.05,-8.25 -1.25,-15.27 -8.13,-20.18 -4.57,-3.25 -9.59,-4.76 -14.96,-6.11 -2.63,-0.66 -5.26,-1.26 -7.89,-1.91 -1.92,-0.48 -3.93,-0.98 -5.77,-1.7 -3.38,-1.32 -5.71,-3.32 -5.92,-7.13l-0.01 -0.09 0 -0.09c0.21,-9.1 14.03,-7.67 19.82,-5.84 3.77,1.19 7.44,3.03 10.74,5.21l0.21 0.14c0.9,0.56 2.01,0.85 2.7,-0.12z"/>
    <path class="fil0" d="M685.95 232.11l0.05 -0.06c0.26,-0.33 0.37,-0.76 0.37,-1.18 0,-0.42 -0.12,-0.86 -0.39,-1.19 -0.05,-0.06 -0.09,-0.11 -0.15,-0.15l-0.07 -0.07 -9.73 -10.13c-0.33,-0.35 -0.84,-0.51 -1.31,-0.51 -0.43,0 -0.88,0.13 -1.22,0.43l-0.17 0.18c-0.41,0.47 -0.84,0.93 -1.28,1.36l-0.15 0.16 -0.01 -0.01c-4.2,4.03 -9.8,6.31 -15.7,6.31 -12.35,0 -22.44,-9.92 -22.38,-22.32 0.07,-12.38 10.25,-22.29 22.6,-22.29 6.84,0 13.28,3.06 17.55,8.41 0.19,0.2 0.45,0.31 0.72,0.31 0.25,0 0.48,-0.09 0.66,-0.25 0.04,-0.04 0.08,-0.08 0.12,-0.12l0.07 -0.08 10.53 -11.02 0.09 -0.08c0.06,-0.05 0.1,-0.1 0.15,-0.15 0.14,-0.18 0.21,-0.39 0.21,-0.62 0,-0.24 -0.08,-0.47 -0.22,-0.63 -8.14,-8.86 -19.71,-13.72 -31.75,-13.72 -22.57,0 -42.28,17.37 -42.28,40.4 0,23.03 19.71,40.4 42.28,40.4 11.85,0 23.25,-4.72 31.4,-13.35z"/>
    <path class="fil1" d="M584.69 112.73l21.85 0c1.59,0 1.61,-0.82 1.14,-1.68l-0 -0.01 -28.07 -40.7 27.15 -39.3c0.2,-0.57 0.09,-1.06 -0.68,-1.23l-21.82 0c-0.8,0 -1.29,0.24 -1.64,0.57 -0.06,0.06 -0.12,0.13 -0.17,0.19 -0.02,0.03 -0.05,0.07 -0.06,0.11l-0.6 1.02 -14.41 22.4 -14.84 -23.29 -0.18 -0.28c-0.36,-0.57 -0.79,-0.72 -1.48,-0.72l-21.98 0c-1.37,0 -1.58,0.61 -1.31,1.32l27.09 39.52 -27.94 40.42c-0.45,0.85 -0.42,1.65 1.16,1.65l21.27 0c0.66,0 1.06,-0.2 1.32,-0.47l16.41 -25.37 16.02 24.77c0.03,0.04 0.06,0.08 0.08,0.12l0.03 0.06 0.17 0.26c0.26,0.35 0.67,0.63 1.46,0.63z"/>
    <path class="fil1" d="M429.51 114.28c11.45,0 19.34,-4.18 25.06,-10.52l0 0.81 0 6.38c0,0.98 0.81,1.79 1.79,1.79l4.97 0 9.22 0 4.97 0c0.98,0 1.79,-0.81 1.79,-1.79l0 -6.38 0 -39.94c0,-11.14 -2.78,-20.26 -8.97,-26.45 -5.88,-5.88 -15.16,-9.28 -28,-9.28 -13.37,0 -22.13,2.37 -30.8,6.06 -0.74,0.42 -1.07,1.33 -0.82,2.17l0.44 1.45 4.32 13.17 0.05 0.12c0.38,0.81 1.26,1.26 2.1,1.05 6.9,-2.44 12.97,-3.91 21.31,-3.91 11.76,0 17.79,5.41 17.79,15.16l0 1.39c-5.88,-2.01 -11.91,-3.4 -20.26,-3.4 -19.64,0 -33.41,8.35 -33.41,26.45l0 0.31c0,16.4 12.84,25.37 28.46,25.37zm7.12 -16.24c-7.58,0 -12.84,-3.71 -12.84,-10.05l0 -0.31c0,-7.43 6.19,-11.45 16.24,-11.45 5.72,0 10.98,1.24 15.01,3.09l0 4.18c0,8.51 -7.43,14.54 -18.41,14.54z"/>
    <path class="fil1" d="M304.43 112.73l4.97 0 44.75 0c24.44,0 40.53,-9.9 40.53,-29.7l0 -0.31c0,-14.54 -7.74,-21.81 -20.26,-26.61 7.73,-4.33 14.23,-11.14 14.23,-23.36l0 -0.31c0,-7.42 -2.48,-13.46 -7.43,-18.41 -6.19,-6.19 -15.93,-9.59 -28.31,-9.59l-43.51 0 -4.97 0c-0.98,0 -1.79,0.81 -1.79,1.79l0 6.38 0 91.95 0 6.38c0,0.98 0.81,1.79 1.79,1.79zm21.41 -20.88l0 -23.82 27.53 0c12.22,0 17.63,4.49 17.63,11.76l0 0.31c0,8.04 -6.34,11.76 -16.86,11.76l-28.31 0zm0 -43.62l0 -22.89 23.51 0c10.05,0 15.62,4.02 15.62,11.14l0 0.31c0,8.04 -6.65,11.45 -17.17,11.45l-21.97 0z"/>
    <path class="fil0" d="M503.4 0c-6.96,0 -12.6,5.64 -12.6,12.6 0,6.96 5.64,12.6 12.6,12.6 6.96,0 12.6,-5.64 12.6,-12.6 0,-6.96 -5.64,-12.6 -12.6,-12.6zm10.76 110.94l0 -71.65c0,-0.92 -0.7,-1.79 -1.65,-1.79l-18.04 0c-0.96,0 -1.65,0.87 -1.65,1.79l0 71.65c0,0.92 0.7,1.79 1.65,1.79l18.04 0c0.95,0 1.65,-0.87 1.65,-1.79z"/>
    <path class="fil1" d="M638.27 114.28c11.45,0 19.34,-4.18 25.06,-10.52l0 0.81 0 6.38c0,0.98 0.81,1.79 1.79,1.79l4.97 0 9.22 0 4.97 0c0.98,0 1.79,-0.81 1.79,-1.79l0 -6.38 0 -39.94c0,-11.14 -2.78,-20.26 -8.97,-26.45 -5.88,-5.88 -15.16,-9.28 -28,-9.28 -13.37,0 -22.13,2.37 -30.8,6.06 -0.74,0.42 -1.07,1.33 -0.82,2.17l0.44 1.45 4.32 13.17 0.06 0.12c0.38,0.81 1.26,1.26 2.1,1.05 6.9,-2.44 12.97,-3.91 21.31,-3.91 11.76,0 17.79,5.41 17.79,15.16l0 1.39c-5.88,-2.01 -11.91,-3.4 -20.26,-3.4 -19.64,0 -33.41,8.35 -33.41,26.45l0 0.31c0,16.4 12.84,25.37 28.46,25.37zm7.12 -16.24c-7.58,0 -12.84,-3.71 -12.84,-10.05l0 -0.31c0,-7.43 6.19,-11.45 16.24,-11.45 5.72,0 10.98,1.24 15.01,3.09l0 4.18c0,8.51 -7.43,14.54 -18.41,14.54z"/>
   </g>
  </g>
 </g>
</svg>
