<?xml version="1.0" encoding="UTF-8"?>
<!DOCTYPE svg PUBLIC "-//W3C//DTD SVG 1.1//EN" "http://www.w3.org/Graphics/SVG/1.1/DTD/svg11.dtd">
<!-- Creator: CorelDRAW -->
<svg xmlns="http://www.w3.org/2000/svg" xml:space="preserve" width="2.7094mm" height="2.4774mm" version="1.1" style="shape-rendering:geometricPrecision; text-rendering:geometricPrecision; image-rendering:optimizeQuality; fill-rule:evenodd; clip-rule:evenodd"
viewBox="0 0 5.83 5.34"
 xmlns:xlink="http://www.w3.org/1999/xlink"
 xmlns:xodm="http://www.corel.com/coreldraw/odm/2003">
 <defs>
  <style type="text/css">
   <![CDATA[
    .fil0 {fill:#5CBB64}
   ]]>
  </style>
 </defs>
 <g id="Camada_x0020_1">
  <metadata id="CorelCorpID_0Corel-Layer"/>
  <path class="fil0" d="M1.22 2.48l-0.15 -1.18c-0,-0.03 -0.01,-0.06 -0.01,-0.09 -0,-0.11 0.03,-0.2 0.08,-0.3 0.13,-0.26 0.37,-0.47 0.64,-0.62 0.29,-0.17 0.63,-0.3 1.15,-0.29 0.34,0.02 0.65,0.1 0.93,0.25 0.12,0.06 0.24,0.15 0.35,0.24 0.14,0.12 0.28,0.3 0.33,0.49 0.02,0.06 0.02,0.13 0.02,0.2l-0.14 1.25 0.19 0.3 0 0 0 0 0 0c0.01,0.01 0.02,0.02 0.02,0.03 0,0 0,0.01 0,0.01l0 0 0 0 0 0c0,0 0,0 0,0.01l0 0 0 0c-0,0.01 -0,0.01 -0.01,0.02 -0.01,0.01 -0.02,0.02 -0.02,0.04l-0 0 -0 0 -0 0 -0.5 0.77c-0.02,0.03 -0.03,0.03 -0.07,0.04l-0.29 0.06 -0.04 0.27 -0 0.01c-0,0.01 -0.01,0.02 -0.02,0.02l-0.01 0.01 -0.43 0.28c-0.01,0 -0.02,0.01 -0.03,0.01l-0.54 0c-0.01,0 -0.02,-0 -0.03,-0.01l-0.48 -0.27c-0.02,-0.01 -0.03,-0.02 -0.03,-0.04l-0.06 -0.28 -0.02 -0.02 -0.36 -0.07c-0.03,-0.01 -0.05,-0.01 -0.07,-0.03l-0.59 -0.76c-0.01,-0.01 -0.01,-0.02 -0.01,-0.03 -0,-0.01 0,-0.02 0.01,-0.02l0.2 -0.29zm2.33 -0.57c-0.03,0.05 -0.1,0.07 -0.16,0.04 -0.36,-0.22 -0.8,-0.22 -1.2,-0.13 -0.06,0.01 -0.12,-0.02 -0.14,-0.09 -0.01,-0.06 0.02,-0.12 0.09,-0.14 0.46,-0.11 0.95,-0.1 1.37,0.16 0.05,0.03 0.07,0.1 0.04,0.16zm0.17 -0.38c-0.04,0.06 -0.12,0.08 -0.19,0.04 -0.38,-0.23 -0.94,-0.29 -1.36,-0.16 -0.07,0.02 -0.15,-0.02 -0.17,-0.09 -0.02,-0.07 0.02,-0.15 0.09,-0.17 0.26,-0.08 0.55,-0.1 0.82,-0.07 0.26,0.03 0.54,0.11 0.76,0.25 0.06,0.04 0.08,0.12 0.04,0.19zm-0.02 -0.38c-0.41,-0.25 -1.14,-0.3 -1.59,-0.16 -0.08,0.03 -0.17,-0.02 -0.2,-0.11 -0.03,-0.08 0.02,-0.17 0.11,-0.2 0.54,-0.16 1.35,-0.1 1.84,0.19 0.07,0.04 0.1,0.14 0.06,0.22 -0.04,0.07 -0.14,0.1 -0.22,0.06zm1.17 1.74l-0.51 0.69c-0.02,0.02 0.01,0.04 0.03,0.03 0.56,-0.28 1.22,-0.26 1.4,-0.24 0.06,0 0.05,-0.01 0.05,-0.05 -0,-0.04 -0.01,-0.07 -0.02,-0.1 -0.03,-0.07 -0.07,-0.08 -0.12,-0.13 -0.01,-0.01 -0.02,-0.02 -0.03,-0.03 -0.08,-0.09 -0.09,-0.22 -0.06,-0.33 0.03,-0.1 0.17,-0.2 0.09,-0.34 -0.05,-0.09 -0.17,-0.14 -0.29,-0.16 -0.07,-0.01 -0.15,-0.04 -0.15,0.03 -0,0.15 -0.04,0.27 -0.09,0.36 -0.07,0.13 -0.18,0.21 -0.3,0.27zm-0.94 1.29c-0.01,-0.01 -0.02,-0.01 -0.03,-0.01 -0.02,0 -0.02,0.02 -0.02,0.03 -0,0.02 -0.01,0.04 -0.02,0.07 -0.02,0.06 -0.04,0.15 -0.05,0.19 -0.01,0.04 -0,0.04 -0.04,0.06 -0.04,0.03 -0.08,0.06 -0.13,0.09 -0.01,0.01 -0.02,0.01 -0.01,0.02 0,0.01 0.01,0.01 0.02,0.02 0.1,0.03 0.19,0.1 0.29,0.16 0.14,0.09 0.28,0.26 0.39,0.37 0.02,0.02 0.04,0.04 0.06,0.05 0.02,0.02 0.04,0.03 0.06,0.04 0.02,0.01 0.05,0.01 0.08,0 0.07,-0.01 0.1,0 0.15,-0.05 0.07,-0.09 0.07,-0.17 0.14,-0.27 0.04,-0.06 0.09,-0.1 0.1,-0.11 0.03,-0.03 0.08,-0.07 0.15,-0.1 0.03,-0.02 0.06,-0.03 0.1,-0.04 0.06,-0.03 0.08,-0.01 0.07,-0.08 -0.01,-0.02 -0.02,-0.05 -0.03,-0.07 -0.04,-0.07 -0.11,-0.12 -0.18,-0.13 -0.05,-0.01 -0.1,0 -0.16,0.01 -0.19,0.01 -0.75,-0.12 -0.92,-0.24zm-2.05 0.01c0.01,-0.01 0.02,-0.01 0.03,-0.01 0.02,0 0.02,0.02 0.03,0.03 0,0.02 0.01,0.04 0.02,0.07 0.02,0.07 0.05,0.15 0.06,0.2 0.01,0.04 0,0.04 0.04,0.07 0.04,0.03 0.08,0.06 0.14,0.09 0.01,0.01 0.02,0.01 0.01,0.02 -0,0.01 -0.01,0.01 -0.02,0.02 -0.1,0.04 -0.2,0.1 -0.31,0.17 -0.15,0.09 -0.29,0.28 -0.4,0.39 -0.02,0.02 -0.04,0.04 -0.06,0.05 -0.02,0.02 -0.04,0.03 -0.06,0.04 -0.03,0.01 -0.05,0.01 -0.08,0.01 -0.07,-0 -0.1,0.01 -0.16,-0.05 -0.07,-0.09 -0.07,-0.18 -0.15,-0.28 -0.05,-0.07 -0.09,-0.11 -0.1,-0.11 -0.03,-0.03 -0.08,-0.07 -0.16,-0.1 -0.03,-0.02 -0.07,-0.03 -0.1,-0.04 -0.07,-0.02 -0.09,-0.01 -0.07,-0.08 0.01,-0.02 0.02,-0.05 0.03,-0.07 0.04,-0.07 0.11,-0.13 0.19,-0.14 0.05,-0.01 0.1,0 0.17,0 0.2,0.01 0.79,-0.14 0.96,-0.27zm-1.04 -1.28l0.51 0.67c0.02,0.02 -0,0.04 -0.02,0.03 -0.53,-0.27 -1.12,-0.25 -1.28,-0.23 -0.05,0 -0.05,-0.01 -0.05,-0.05 0,-0.04 0.01,-0.07 0.01,-0.1 0.02,-0.07 0.06,-0.08 0.1,-0.13 0.01,-0.01 0.01,-0.02 0.02,-0.03 0.06,-0.09 0.07,-0.21 0.03,-0.32 -0.03,-0.1 -0.16,-0.2 -0.11,-0.33 0.04,-0.08 0.15,-0.13 0.25,-0.15 0.06,-0.01 0.14,-0.04 0.14,0.03 0.01,0.15 0.05,0.26 0.1,0.35 0.07,0.13 0.17,0.21 0.29,0.26zm1.31 1.27l0.07 0.2c0,0 0.01,0.02 0.01,0.02 0,0 0.09,0.07 0.09,0.07 0,0 0.03,0.02 0.03,-0.01 -0,-0.02 -0.01,-0.18 -0.01,-0.18 0,0 -0,-0.02 -0.01,-0.03 -0.01,-0.01 -0.16,-0.09 -0.16,-0.09 0,0 -0.03,-0.01 -0.02,0.02zm1.35 0.1l-0 0.17c0,0 -0,0.02 0.01,0.02 0.02,-0 0.1,-0.08 0.1,-0.08 0,0 0.01,-0 0.02,-0.02 0.01,-0.02 0.05,-0.18 0.05,-0.18 0,0 0,-0.02 -0.01,-0.02 -0.01,-0 -0.15,0.1 -0.15,0.1 0,0 -0.01,0 -0.01,0.02zm-0.25 0.16l-0 0.17c0,0 -0,0.02 0.02,0.01 0.02,-0 0.15,-0.09 0.15,-0.09 0,0 0.02,-0 0.02,-0.03 -0,-0.02 0,-0.17 0,-0.17 0,0 -0,-0.03 -0.03,-0.01 -0.02,0.01 -0.15,0.09 -0.15,0.09 0,0 -0.01,0.01 -0.01,0.03zm-0.27 0.01l0 0.19c0,0 -0,0.02 0.02,0.02 0.02,0 0.17,-0 0.17,-0 0,0 0.02,0 0.02,-0.03 -0,-0.03 -0,-0.19 -0,-0.19 0,0 0,-0.02 -0.02,-0.02 -0.03,-0 -0.16,0 -0.16,0 0,0 -0.03,0 -0.03,0.04zm-0.29 0l0 0.18c0,0 -0,0.02 0.02,0.02 0.03,-0 0.17,0 0.17,0 0,0 0.03,0 0.03,-0.02 0,-0.03 -0,-0.19 -0,-0.19 0,0 0.01,-0.03 -0.02,-0.03 -0.02,-0 -0.19,-0 -0.19,-0 0,0 -0.02,0 -0.02,0.03zm-0.26 -0.1l0 0.17c0,0 -0,0.02 0.02,0.03 0.02,0.01 0.14,0.08 0.14,0.08 0,0 0.03,0.02 0.03,-0.02 0,-0.04 -0.01,-0.17 -0.01,-0.17 0,0 0,-0.02 -0,-0.03 -0.01,-0.01 -0.15,-0.08 -0.15,-0.08 0,0 -0.04,-0.01 -0.04,0.02zm1.72 -1.69c-0.01,0.13 -0.04,0.29 -0.08,0.37 -0.08,0.18 -0.2,0.16 -0.36,0.13 -0.1,-0.01 -0.2,-0.04 -0.29,-0.09 -0.05,-0.03 -0.1,-0.06 -0.13,-0.1 -0.09,-0.1 -0.14,-0.21 -0.14,-0.32 0,-0.11 0.06,-0.21 0.19,-0.28 0.23,-0.12 0.44,-0.21 0.6,-0.16 0.19,0.06 0.22,0.26 0.21,0.45zm-2.61 0c0.01,0.13 0.05,0.29 0.09,0.37 0.1,0.18 0.23,0.16 0.42,0.13 0.12,-0.01 0.24,-0.04 0.34,-0.09 0.06,-0.03 0.11,-0.06 0.15,-0.1 0.1,-0.1 0.16,-0.21 0.16,-0.32 -0,-0.11 -0.07,-0.21 -0.23,-0.27 -0.19,-0.07 -0.5,-0.16 -0.7,-0.12 -0.22,0.04 -0.25,0.21 -0.23,0.4zm1.13 0.97l0.1 0.08c0.01,0.01 0.03,0.01 0.04,0l0.1 -0.07c0.03,-0.02 0.04,-0.02 0.07,-0l0.11 0.08c0.01,0.01 0.03,0.01 0.04,0l0.09 -0.08c0.02,-0.02 0.02,-0.04 0.01,-0.06l-0.27 -0.53c-0,-0.01 -0.01,-0.02 -0.02,-0.02 -0.01,-0 -0.02,0 -0.02,0.01l-0.26 0.52c-0,0.01 -0.01,0.02 -0.01,0.03 0,0.01 0.01,0.02 0.02,0.03z"/>
 </g>
</svg>
